<mxfile host="app.diagrams.net" modified="2023-07-15T11:11:53.743Z" agent="Mozilla/5.0 (Windows NT 10.0; Win64; x64) AppleWebKit/537.36 (KHTML, like Gecko) Chrome/112.0.0.0 YaBrowser/23.5.4.674 Yowser/2.5 Safari/537.36" etag="LHB8bVtR9klYzg9aFQcQ" version="21.6.2" type="github" pages="2">
  <diagram name="Страница 1" id="LIjPRBFc2CDhg-cO4D79">
    <mxGraphModel dx="1829" dy="1744" grid="1" gridSize="10" guides="1" tooltips="1" connect="1" arrows="1" fold="1" page="1" pageScale="1" pageWidth="827" pageHeight="1169" math="0" shadow="0">
      <root>
        <mxCell id="0" />
        <mxCell id="1" parent="0" />
        <mxCell id="b3VDB1ha94okd-puWpiR-1" style="edgeStyle=orthogonalEdgeStyle;rounded=0;orthogonalLoop=1;jettySize=auto;html=1;fontSize=20;" edge="1" parent="1" source="b3VDB1ha94okd-puWpiR-2" target="b3VDB1ha94okd-puWpiR-7">
          <mxGeometry relative="1" as="geometry" />
        </mxCell>
        <mxCell id="b3VDB1ha94okd-puWpiR-2" value="" style="shape=image;verticalLabelPosition=bottom;labelBackgroundColor=default;verticalAlign=top;aspect=fixed;imageAspect=0;image=data:image/png,iVBORw0KGgoAAAANSUhEUgAAAvIAAABZCAYAAABc38BIAAAgAElEQVR4Xu2de5AV1Z3Hv1NJ7Rg0paATpUB0F1KokBlKjCXqJpuxhKy6AcWIokMKo6gRs7vEYrKwCeIurENFSVQWH6vWgqJR0SEqu2BipKL4iBqYDBEr6q48VpEoSUXcTCpbs6ffp0+fft25fbv79nf+Ue49fc7vfL7dfb/n9O+cbvnDwB8Hwb/KEHjxha04bcrplekvO2oRoO7VPBOoO3WvJoFq9prXezV1b6GRr5bwvNCrpbfTW+pO3atJoJq95vVO3atJoJq9ppGvmO68wVdMcLu71J26V5NANXvN6526V5NANXtNI18x3XmDr5jgNPLVFJy6U3emUFbuHODve+UkNztMI18x3XmhV0xwGrpqCk7dqTuNfOXOAf6+V05yy8g/++yzXOxaTe3ZaxIgARIgARIgARIggRITaBkUfyWOn6GTAAmQAAmQAAmQAAmQQCUJ0MhXUnZ2mgRIgARIgARIgARIoOwEaOTLriDjJwESIAESIAESIAESqCQBGvlKys5OkwAJkAAJkAAJkAAJlJ0AjXzZFWT8JEACJEACJEACJEAClSRAI19J2dlpEiABEiABEiABEiCBshOgkS+7goyfBEiABEiABEiABEigkgRo5CspOztNAiRAAiRAAiRAAiRQdgI08mVXkPGTAAmQAAmQAAmQAAlUkgCNfCVlZ6dJgASakcDmBcdj3mNWz0769iZsvHp8M3aTfSIBEiABErAJ0MjzVCABEiCBrAgM7MGWR/pwzGXnoBGWesOcFsxYa3Wmo6cf2xZOyKpnieo9uPM+PPH+XFz8hUTFWYgESIAESCAlARr5lMBYnARIgATiCQxgz5Yf4OpLv4unjroR/dsWohGWujBG/uBOPHz9Rbj8jl/igt5BrJkeT4wlSIAESIAE0hOgkU/PjEeQAAmQQDSBjVfgkHPvwYA1NV4xI/8GVn7+BCx4xULURSPPq4UESIAEMiNAI58ZWlZMAiRQWQIb5qDFy3GpmJHfgRWTJqJ7O418Zc9/dpwESKBhBGjkG4aaDZEACZSWgEgVeXLVXVi3aTO2vvWR2Y2RHVMxdcaVuHL25zG61enZG7jjnGm46ZXf4J39B60PWw/HqGOOwCdxEr69aSOuHm+X+ZX1dWBR6ht34JxpN8H62jlGJjeAA/0b8P3ld2L91rfw0WFjMe2a7+I7V3wRr14ZkyNv9mMlVq7ZBKMbh409HTMvuw5zL5qC4w9V1JHjuOAu/PctZ2Dnk6uwcuUabDIOHtmBr837R3//Ny/A8fMexm/f24vfmY8jgEPbjsNRw8T/mHVMtT4Uawd+vu5u3N27GZu3v2t+ZMQyddpszLv2PJygxlLaE4eBkwAJkEC2BGjks+XL2kmABEpOYKBvJTpPX4Ctti9Xu9M6/jo8seVWnH208Y1/NtpftgM9/duwcIK/TGBR6o4VmDSxG9aEtnOMU9MA+lZ24vQFW6GGY8Rx+fG3YfUmq6xa777nbsAFX16q70fbVNzx4x/hqnZ3RCK6IsUxaxlu2b0cCzQQWk/pwcvPLYR5qPwkQgXV1YtBI1l+3wZcMXkW7tlrO321nC6Wkp9DDJ8ESIAEsiJAI58VWdZLAiTQBATexqozx2L+80ZXxqLr3rVYdNYoDPugDyvnXYjvv2KZ0bbrfoLdt3aiVWTFH9i7D79/+ls4bu6jVv8nLMaWjfNwPD6BTx89CsNbazfyB0Tu/XiRe7/fahVTl9yLmy5vB/ruxbcvX4rN1hfmn8/Iv30nOk+6Gj81wm0dhVm3PIIbzhuOvQ/9LS7p3mzV13YdfrL7VnQ6Xt43oDCOG4+vr74P1581HAeeXITp1z5ux9GK8x98F49dPBw4uB+7Pngdd53zRSzbYcVx4X3v4OZO8T+fOhJj2j6Jp78xElNXHxAfDMeXFq3BzVe148iP9+LJRdNx7eNWB1q/dAd+9cxV+AuvO/w/EiABEiABDQEaeZ4WJEACJBBKYAPmtMyAuaPj8Fl49PWHMNOceRd/b6/CmWPnw/T4refjwXcfg+Flzb/IHPlajfxu3Nk5Blf/1Gpi7KIXsGPZaWLwYP0NvLgYE6Ysx1v2v2Uj/8w3R+Cs2wzzrM7UD+DFxRMwZbl11Bm3v4XnrrXts8/It+Ira9/Bhsuczh/A/dNHoOtHVmPDxUDmQzGQsf6icuTl7zqwbPtLWOQ8BRh4Gt8YORWmxxeDpiWvvIkbJttV8j8kQAIkQAJaAjTyPDFIgARIIJTARlxxyLm4x80CORRtp52Fy84/H+ed3YlxRzoHOrPt9r+zMPID63HxIRfih2YTE4QJ7hcmWA68D8sndmCxPRPuGfkXsXjMFCzfHXLcM9/EiLNug+mfv7IWH264TMyVG35cTvH5Eu7Y9QyuOtZrr2/5RHQ4jTlpM7FG3r+jjRgB4fDPnoFzLpmJS7/cic+NMpLprb9PHTkGbcyV57VJAiRAApEEaOR5gpAACZBAKAGRk77iTJza/Yq1laT6d2gbTjt/CW76lyvwRW/FazYz8j5j3YXewTVQt2fX7yMvPVUwjPOoY3DEJ6WO/Om3eG/v76z+HbsIL+xahtMCRj7Y3o4VkzDR25rGyn+PNfJGivwcfE7s6CNlAXnBiIXBnz3j6/jnVTfiIq545XVJAiRAArEEaORjEbEACZBAtQkcxM6Hr8dl8+7Dq85WLAFDfzpue+l5zHfe+pTFjHxdjHyckpJhj2mvViMvkoDMl2VdN/dG9P5X2AriUbj6sV9i9TlOrlJc3PyeBEiABKpJgEa+mrqz1yRAAqkJiIWsb72GrZv+Ew+sX48fv7QDzg6TRlW+PPEsjPyB+zF9RBestPRTcMvOn+Pvx8ud8OfQe6k18oz8BCzeshHzjg/r/Kdw5Jg2mBktmRl5r+2D+3+Bl556Gk8+/jge3vIL7JUHSmLB6y6x4FXK5kmtGA8gARIggWYnQCPf7AqzfyRAAjUTeHfdbExZtNU6/vNL8bNHviYZy4PYsuBE/NVKM/nceIWpl14SaeT9C0XVbSIHnv4GRk5dbeWs+7aflBeKSjvFOL078BAuGHkJHrdzgLx6ZYPfKsL8HdZM97aZfLVnCmautvZyH3H5g3jtu1OsGrMw8i/ciJMvuRcfGvUf1oU1/f+EL7jqiJn6u6fj2Hnu/pkNe5FWzScIDyQBEiCBnAnQyOcsAJsnARIoMIEDYjZ7rNi1xnTVbeh69DXcPXO0tVOMeKnRw19rx6wfWpbbt+NL33JM7Fgs9m8x/sRuN38Qu91IW7S/uHiM2CnGHgB03IBXn1+Ck8U0+MCeLbjx/GlYbm9rqe4j//adnThJbFtjevW2Ljz62t2YaeTmi1jWX3kyLlzrZZ7LA4QDD12AkZc8bh039hpsfHYl/to4bp9YQHuiWECr2ymmZiM/gPUXH4ILrVW5mLBsO/rdVbn+wcgpy7bi2UUnW08AxM74ry09A5NvsHbQH37NZrz7r2e7u/IU+CxhaCRAAiSQGwEa+dzQs2ESIIEyENi34QpMnnUPnPcXOW8q/fg377ipNb6XIhmdUmbHjWOO+ON76Pz3P4jZcPG9uke7WDR73FF/Zr0RVQwY2obtx37TXCsvhBrow4ozT0W3a/TFLjrHHQWYsbSirW0Y9lsHKi+E2id2xPwcZjhG33zb7GH4yH0DaytO6XkZzy1s94xzzUYeePWGcThlqb0RptmW6NsR1+OlbQsxTnnBVuvho3CMWH37p9++56XWiEFK7y/FYl5nt8synCiMkQRIgARyIEAjnwN0NkkCJFAuAgd3Pozr587H2hf3+9+oeuifo/Oqm7Dqxovg32RlAL++/wpMu/p+yOs5p97zP9h0+Uiz8/vES6PO/eoqaQGt2FFm8lzc8+A1eOurHbA2hFHf7Co+Gvg11v/dJfj6fa/CTSkXcczoeRTfOXg5Jts7yQTeGCtm7bf82z/gW4sf8S3abT18MubedT++d9EJ9sy4rc0QjDz2PYcbZp2Hm7bYu+EYVbYtwJb3bzZTaYwnDz+47kos/49fe30wygjTP/mry3CzugtQuU4XRksCJEACDSNAI98w1GyIBEig9AQGDmDvvt/j/4yOmG8qjdvo/CD27/oA/2sW1+2Lbr8JVlTofe99BvdtsBpyTiyf+DSOHjXcnEkfOLAX+35vRodPfPpojBou5fNIVRzcvwsfGEFJxwZakPsKaRGsXVBuK4yFWya0HY9PZCylP3HYARIgARLIhgCNfDZcWSsJkAAJkAAJkAAJkAAJZEqARj5TvKycBEiABEiABEiABEiABLIhQCOfDVfWSgIkQAIkQAIkQAIkQAKZEqCRzxQvKycBEiABEiABEiABEiCBbAjQyGfDlbWSAAmQAAmQAAmQAAmQQKYEaOQzxcvKSYAESIAESIAESIAESCAbAi2i2sFsqmatJEACJEACJEACJEACJEACWRHgjHxWZAtab0tLCwYHOXYrqDyZhUXdM0Nb6Iqpe6HlySw46p4Z2kJXTN0LLU9mwdHIZ4a2mBXzQi+mLllHRd2zJlzM+ql7MXXJOirqnjXhYtZP3YupS9ZR0chnTbhg9fNCL5ggDQqHujcIdMGaoe4FE6RB4VD3BoEuWDPUvWCCNCgcGvkGgS5KM7zQi6JEY+Og7o3lXZTWqHtRlGhsHNS9sbyL0hp1L4oSjY2DRr6xvHNvjRd67hLkEgB1zwV77o1S99wlyCUA6p4L9twbpe65S5BLADTyuWDPr1Fe6Pmxz7Nl6p4n/fzapu75sc+zZeqeJ/382qbu+bHPs2Ua+Tzp59A2L/QcoBegSepeABFyCIG65wC9AE1S9wKIkEMI1D0H6AVoUjHyGzCnZQb6evqxbeGEkPB2YMWkiehGD/q3LURYqQL0jSFoCPBCr+ZpQd2pezUJVLPXvN6peyoCG+agZUYfevq3IdT6paqwfoV3rJiEid3t6B1cg+lh1Zrxr0VX7yDWhBaqX0xFq6mGGXka+aKJmCYe3uDT0GqestS9ebRM0xPqnoZW85Sl7s2jZZqe1Kx7gY18ov7TyKd9OxCNfKITq6CFar7QC9ofhpWMAHVPxqnZSlH3ZlM0WX+oezJOzVaqZt1p5Et9KiRIrbHSbdY63ezqQU9fN1NrSip7zRd6SfvLsC0C1L2aZwJ1p+7VJFDNXkdd71aKynYXTIecQq0z8jtWYNLEbnhHAL5jNN8HUlvsmXJPjY7U6Tu61Bp/X0SdPe3o7mZqjc1ZyZF3hOrqxaCdeLRhTgtEKpKhKHPkS3iv4A97CUWrQ8jUvQ4QS1gFdS+haHUImbrXAWIJqwjT3fJtkom2vZ1w1dZ6SNXI29+3yznncvrKOMvku8cbrNQ6NOkuifLdFe7qMWF9MQYczJE34fmNvAWsS1lkwNSaEl7fbsi8wZdZvdpjp+61syvzkdS9zOrVHjt1r51dmY/U6q4z5aKTpkFeN9uakFVMuOn9+tTJWtv7tYuJ3ZnrYxfH1mLadex99agDEOcA5sjLOfKykYe1O40hmrIMWC9ymU//6sTOG3x1tJZ7St2pezUJVLPXvN6pu0sgSf57VBk1PcbM0ICXci1lbPioS6k3vpSclNL4jHxYnCGDlZRNlbZ4RI78m5ZQGpF8I7nSdr2agfMGT92rSaCaveb1Tt2rSaCavdZd75YRNrJgIraWDEmtcfLjLSMenNx1U60d3AG/aM/iS4n2aU29bOTHhfbFmoQW6SPcftKfWsMZ+Wa8FfCHvRlVje8TdY9n1IwlqHszqhrfJ+oez6gZS9THyIelT0upNZrN2t0FqGEz9AK4Y/zTmHnOyMefqZG71jBHPh5g2UrwBl82xeoTL3WvD8ey1ULdy6ZYfeKl7vXhWLZa0uTI+xanvim/EMreqVA15JrNT/x8kqyfDKk7AjRz5OPPwpjtJ4PQ3VEXd62Jp1vAErzBF1CUBoRE3RsAuYBNUPcCitKAkKh7AyAXsInEu9bYG5u4qdO+1BonHUbe6ERKkTEMvrnYVdnuUVmIqk3pqWFRqrpoNlivt0U6d60xT0pl+0npM3cfeWHge9rFPvKBFc0FPKsZUoAAb/DVPCmoO3WvJoFq9prXO3VXCaTbRz6Y226Y5JnrpZ0MA3vEK/vMiwDUNo2Y0prt+H3kRZ09Pejr7oZvu8wKnQLKjHyFel7RrvIGX03hqTt1ryaBavaa1zt1ryaBavaaRr5iuvMGXzHB7e5Sd+peTQLV7DWvd+peTQLV7DWNfMV05w2+YoLTyFdTcOpO3eVXxFSaRnU6X6bf98DWlVqZpLfRVkfG1D2lkU+NrNwHlOlCLzfpYkVP3YulR6Oioe6NIl2sdqh7sfRoVDTUvVGki9UOjXyx9Mg8Gl7omSMuZAPUvZCyZB4Udc8ccSEboO6FlCXzoKh75ogL2QCNfCFlyS4oXujZsS1yzdS9yOpkFxt1z45tkWum7kVWJ7vYqHt2bItcM418kdXJIDZe6BlALUGV1L0EImUQInXPAGoJqqTuJRApgxCpewZQS1AljXwJRKpniLzQ60mzPHVR9/JoVc9IqXs9aZanLupeHq3qGSl1ryfN8tTlN/LizVyY2B0evXgZFLYttL/fAUyaCGyP6Kx4AxjWTLcKrJgEdIvCch1zWgDvTVNA/zZgglSfGo9cn1lsA8TrxbwDAt9L7YaG2QUMij67fTH+vUYpLbXjY+AUk77v6QcWyp1QYuwV3y+J4abGKl7EABuj+5XLriPILUKS8AvdezuadXgdVosbb3q7FHhAnDMykfJcHs0TqV533Qvg6tBn6l4HiPWpouYfdt+bHusTC2tpHIGadW9ciGwpAwJ63Tfh9h+uxusR7Z14Qi/mCyvh/m1fjmt3vqwcMRp/OeV2XDzG+/j15+fj9j17Imo+FTNnLUKnKBFfVhQaNh3zx7yL2822vWPlBsLq8fdhBx56YjF+9rFxZLAerw59G8ZRUWV8MYiYZ454FesjOSiIRlyDVWdP838oMf/M6GVYckZy15TOyJv+zjHzCYy8Ud4x17FGXpRVTbBzjNNd1aiLHxuI1wR7fxpTq9ahPeWEee8X5toZxKhxxJrmMCOvmnjDkCfk1iMGQevEIMUYKKmDB7nfgYFD9N0h7Aave3vaUO8z5vZSfAPwUDHW5fhGGnnqXhfJ6lJJzYaORr4u/POqpGbd8wqY7daFQD2M/DNPz8D6DyPCkUxoInNuG+mRsaY/zsjHD0jgxiYbeVGvYpyHYuRVEz//b+YCCfvmGX51UCT1zRjMiDpPTHFGhBh5jSGWzaM5QywZ0siZcLuup+Jm5FXDqjG8ajuOwe4Sg4s+MatumN7QwYBmpl2e8TeOM8y8OS6Q+q+W8c22O6R1Rl5n4o3yUr/iTLjWsEvHa58O1GbkszBfWdSZ4txmUYkAjXw1T4eaDR2NfKlPmJp1L3WvGXyckY+b6ZVNqlpWNvjOd5GGeNd9WPrCBrwvZDHKX4TV1ux9nFF1Z6bl2XLZmEeYYNGWNTOvGHn3c+scqdXI60y8Ybjdz+P6Br1h9+oNPvVIclYnN/JyGotpQEX1TjqKzsi7BjiBke8QZbYbLlwy2/LxHeI782spVUeOxxhYvKEZKBgE3Bl5XcqMaqrf9FJ1nLacwUKkaVaNvMTGiMGXGpPCyBvHuk8D7Phdc58upcY5GYIXuppS45T0UmvM2fp1s9HT3o1ue6DT0/8AcOlEM1vK/RPMBs1Uqh0Cu/+7LsHAybKKPjG9dI+lYmDlPXDpEhjXSBlGmrjd9kXSlf00oHf2Osxwg7T79OYckZHlPckJxGaaGOlJj9C+v+TpQcmNfDRXnbbGdUndk9xuG19Gq7tj0ntni4d+3W52ZIe4r29zJipCynha230x0qjEk0zvNiBfp/Z9oL1XzJEsEQ88nVLBtD315TC+WBqPrfQtRhn54It4Yu6t4vruxQzl6WoGqZilp55/B4Zm5D2TGWb4PTNvmWxvll2XouKZ6SEbedfchxldK3a4KUJBIy8PIGoy8nK6kWLYkxt5cY5I9ViDjnjucWdWciMvp6ikmpG3DWhUao1hkoVJNGfDHdPrGFZ5tl028q6htetXBw5OelGUkZdn29V2DXJdou61RlBxplk28lJKTMDEGx+kNPLygMWNR1QTN5sfonzYDd43e67MxllpN+JHWDVskA1uMN+6thl57wfCM9j2Z66h1uR224bC4GKYEffHSmcyJWNu9c3Auc1c2uD01WvbNiO+vsZdVsX7PpmRj+NqjIvFAI26F0/gNNe7O1CVDLVy/YgLyB7MSiYvpIxsuq3rzqnXG9B7ZZzPnHrVfxu3SGtw4FzLpYFdoEAT3efNeJX7mzMwUydFzJ9B+36vKaPeRwuEolKhDMnIx5plgdKdZbcMdcduJ0deY+SlGXnDsJ71kV02btZaMyPvDiDijnXVloz8sNH4zMd73CcDRu55aiN/ArDeWTOgiSGVkRcxygOiE0e8jNeNVKbEfQue0tnnyDuGM87ILxWz/MYsqDoTLi8OlY28m1bjzNKHpPokyZFXZ9t9i3ANQy8/CdDdF5Q0GrlIYCY/SY688vQgsBZA93Qh2f0q0Q1ea+Q9s2ssMp4jFhn3yTN4muaHZOSlHxLz58Y03O3mrPw46f/lNcBye2+ahsI/06T9sbF/lNrNJwb2gEFpuxmMRRIjH7ZOwuM6Hj3UPdmFVpBS4TPya8Vtzf+UzKe/beT9ZbwZ9sE146xBnZhtt57GOH/yNWSXUQfB8v3Ffjqmj0W+5xQEaEnC0Oruu9fJkhmDtj5zMmN8T/C+6dzv19pGXndvDQwISsKp2cKMM/La/jr549qUFvUIb/bYZ86jQNoGNUkeuTlDDWehrTc4cI2vbpGotm3JyItj5g97wl6Um2AAYtcXlf+vLg5OslbAf0ww3z+w4DjFyZnOyPtmgWMMqWpg44z8tvF2WothUmdK/y/tKOMaask4y2krutn3SCMfNtMuG/Mkpllj5ENnz2sw8oag8uBCt4tNQtFrN/KWiXZ+sr3Hs+pjWeknvabFrvpBQuhiXPXRvvxjoyy0jTXysGYhg2lAsoFRtw9KCD7nYkmMvC/EKK5m1hF1z1nSRM1HptbYT6E8Dy6d/+a1YJk7b1mQPHsbPqjzBn7n4imd2ZeMvN44miN3c1beGmAn6ioLSQTic+TV9EfjKYqdLhkYnAV1X6tOdpiSeZMtlCyf07FYRt6fBpPY7KYw8tqFuabZH+3tWmP+G97OPT5jn2TXGlvLYaeKBahi9lyzE07ivoXtDJR4gKI/r5Kn1gSO182Ay4ZWMcmxRv5cKefeTmkxBwPy5/bMeGCGWtM5x+zqzL1sisNSVAIz/lEXZki/tbvdpE2tsdtVU4lqvE/Uy8ibzau55Iq5G8qMvDrb7zfhSn6m/aMSmJGv0ciHotX8eNUoQ8MPS2bk47maGWvUveH61dpguJE3shjlNSeKeY4z8qbn06e/JDPy1oB55npjBji8d8nX1tRKqDmPi7zPu7ztwbg7sFoq1jLMgM6kq0/lwiULH+A3J+li9SrOyEcudq1Tao1uUaxBKXH6SYrUmuRGXmz1KG/vKNJt3hfpNmFbXPriNf7hGG0pXUjeCSdx33yni//phm/7z5SnVZ2NvPVj4O1FL81mxxp5sXpWnT3XLqodF79/vQFB3fZSXkgr56kbZaP2aY9NqzGdjbdIVh4YyCx023amyXMvopGXTzZ3Bte7kWdl5MNm8epj5NVZyJRXVEGLJzHy1lOW4A9xpI7UvaCKW2EVd0ZeMvLcorbu51CalCprYG7c95LPyMelVda9Q6wwEYEhGXlpR5WhLXb1LzR1UkYSm11dik9ggaiKw59KE5yRt/ZsDxr/JDPy/jJyHan7Vhojb/paaX/3JPvIOybXNwhwZvSVmf/uN8L3ezfadgcDym45PiOvmO/Ad+L7Wmfko/bCVwcmzWTkzTGcf+FoNkbe/rEJLD71L4g18zjTzsjbOfLBH6lkawIS3WlzKhRv5HULWa3rxFgP4eTH6l5RQd1zEjVBs2kMXTBHPiq1xk6bCbsOzadXIXn0cv69dubf+g0JpvYk6DCLhA7gwhakyguUE+fIawZftd3vKVg9CQzNyCsvbVLSPdJtPynngCs73MQt6ozdftLZYlIiJ+8oo02tsV++JM+om4enN/KQt5BU98iP61upjLwRrJpWErWPvG62WveZMSgQ25hZex6G5Ler+75DvFrULK/JdY96sVK9jLzv7bNGzJYRjXwjrsEv9OVXSXL2w28N9Umt0S0KDe7uUlvOZFSOvLX4zfqx8W9h5+bsDyVHXiR2Bnetsbey1MxU1/MGnHVd8Ube2ekniquVF+1/9E7ds9ZuKPVHGXnfOgfbXLu7y2iNtKK1eozpvzW71qg5176FtJpda5zBY4lT2YaiWT2OjdI9uM2otTObuR4C9naiul1rnM80u9Y46XZMhaqHerXXMVQjb7Rc2wuhNIZYeVOpu498ZPdEPe4OMWqdCV4IJeoO7CMf+jKoWo18cMDjLaaN6lx4f4ay0NVosf6pNW4/pHQTw5SL/bxNQy0vgtXt0R65G82t4sVP39S/7dRtV3lhktOuzsjrBhzOlGPdjLz56+a9gbZL6kOU5oU28kbgmv3G1f3WpQWTyfeFjjfyxuI73b7TD4hBm7OVpGn2U8/I24JUeB/5OK4LJ1D32n9mG39kZGpNTzu6rRdDmH8+E5bEyBsHhSyKtm6jIYvENTvicB/5+p4boYtddfe2wHqH4FoZcx95sZu8t0MR95Gvr2L1qa0eRt6MJDBzbXwY3MM9bhtHb1AwGieOEAb4QyMvPeovysjbx8mz71JVfjOsptrYM/L2femhJxbjZ5pFq3Jk0X3zv6Aqcd/E3vudbiNZ5cjX51xiLQUmEL+bQYGDZ2g1E6DuNaMr9YGpcuRL3VMGLxOo7/VuDcjWzZZeGEbchSRQX90L2UUGpSHgn5EnoqYnwAu96SXWdtAoUs4AAAF1SURBVJC6U3eXAPPPm/5kqPV61y1458ueynO61Kp7eXrISHUEaOQrdl7kdqEHXuUeAp55sZmckdQ9E6yFr5Qz8oWXKJMAa7/e1f3ljfC4pWQmImVQae26ZxAMq2wYARr5hqEuRkO80IuhQ6OjoO6NJl6M9qh7MXRodBTUvdHEi9EedS+GDo2Ogka+0cRzbo8Xes4C5NQ8dc8JfM7NUvecBcipeeqeE/icm6XuOQuQU/M08jmBz6tZXuh5kc+3XeqeL/+8WqfueZHPt13qni//vFqn7nmRz7fdFtH8YL4hsHUSIAESIAESIAESIAESIIG0BDgjn5ZYycvv3rMHx44eXfJeMPy0BKh7WmLNUZ66N4eOaXtB3dMSa47y1L05dEzbCxr5tMRKXp4XeskFrDF86l4juJIfRt1LLmCN4VP3GsGV/DDqXnIBawyfRr5GcGU9jBd6WZUbWtzUfWj8yno0dS+rckOLm7oPjV9Zj6buZVVuaHH/P+xwIlysiYvmAAAAAElFTkSuQmCC;" vertex="1" parent="1">
          <mxGeometry x="-120" y="20" width="754" height="89" as="geometry" />
        </mxCell>
        <mxCell id="b3VDB1ha94okd-puWpiR-3" value="" style="shape=image;verticalLabelPosition=bottom;labelBackgroundColor=default;verticalAlign=top;aspect=fixed;imageAspect=0;image=data:image/png,iVBORw0KGgoAAAANSUhEUgAAAf0AAABXCAYAAAAOPJy0AAAYuUlEQVR4Xu1dfYxW1Z1+Jm0yumpwtBM1A9SUGl0HZ4hoI9Ls4LiCi26hTqsFfGlUBJRgV+0yFrKiVNAhVdZPUBTTQan1i8EIjVDpkBjQCsgMg5GI/WCYFUoVTUvXMW5mz/0+9+u9973vx733vc/9R5z3fPzO85x7nnN+53fOrfli8Msh6M/bO7ajpaXF+F/+NyMI9B86hBHDh2ektWymgQB5z2ZfIO/Z5r2Gop/NDiC3moNANvsAeSfv2UQgm6023vea7u5uc6WvQDFhwoRsIsJWEwEiQASIABGoYgQO9veDK/0qJphNIwJEgAgQASKgIFBTU4OhoSGKPrsDESACRIAIEIFqR4CiX+0Ms31EgAgQASJABHQEKPrsCkSACBABIkAEMoIART8jRLOZRIAIEAEiQAQo+uwDRIAIEAEiQAQyggBFPyNEs5lEgAgQASJABCj67ANEgAgQASJABDKCAEU/I0SzmUSACBABIkAEKPrsA0SACAD7V2HypAfwvorFNXjqTw9hInEhAkSg6hCg6FcdpWwQEciPwOChbXip90xcP/lcK+G+5Rgzuh096l9y6BrqxBQCSQSIQNUhQNGvOkrZICLgg8DgIWx7eC5m3L0R31jShz0LGin67CxEIGMIUPQzRjibm10ENs06AVc9M6gC0NzhEP3BYxg48jf8n/rriTh9ZD1Oyi5UbDkRqFoEKPpVSy0bRgTsCGyYWYOpa7W/uUSfYBEBIpAJBCj6maCZjawcAoM49O46rF7dhc2be/CxUvHJo3DpxEmYPnserj7Pb/18HB+8/jhWrOjEGx/9XcvTdj3m33Atxp3tl2cQx/q2YPWa1Vj/qlbXyaMuRdv1t+Pm6RdjeK3eaj1Ib+df/4yjx7W/1Q5rwJmnfh04/y68sWkuzg0TyHf8T9jx4rN49LlXsN20sQ2zpv0YrV7t2nwHzp79qlrf+Xe9gU03nIR3163GfU/9Ej3C2JNHTcLM22/HvKvPc3sVxFaEknZ112ZsVhLrbZs4aTpmz7savjBWjmjWRARSiQBFP5W00ehkInAEG2aNxXXPDEBzojufekxc9Vu8NqcJhh6rKY68hXuuuRL3btcV2ZbNJw+OYMttLfj3R/d71lXbcBN+vetpTDlDFGYL0nPY1NyBvj0L0BgQyHdky5244vsPYa+XiUKyL7hjPbY8eAWU6sxnw0zU6K6F5v/swEXr7sYzA25k6nNd2Ns5xcp7ZANmjb3OM61adv1ErPrta5jTZEMxmV2CVhGBhCFA0U8YITQnvQgMbrkVZ01ciWOiCXWXLUTng3PQdPo/MPD6QkyZtx5HlabVXoZV72/FnG8Z7fwDnmw9H3N/p4hhLRquewgv3XM16gZewE+mtWOzmqke89/sxyOthsgNonf5d/Gd9p2q4NeeexNWPvtTXF53DK8vnIJ569VMoqpVeH/rHHxL36/fcuc3ccPLWr2Ni7Zh0+yzga+dgjMa6lCbR/QHe5fju99px05Vr8UkZPEaPHBjE9C7Bv819wFsVIW8Fhd1/B5vLZAmNJLoG2K9eM0DULOumI0f/LdmPzAKi3cewD1jlX8PYsutZ2HiShVFXLawEw+KSdLp/xjwblt6uwstJwKxIEDRjwV2VlqNCOxbPgaj27VDb81Le/DOQkMAZSETErd4Jw5oCgdsvQ2nXf6oOlEQG+3aqlsHZ/DtRWgctwwfKf8//jF89NY8qHOFYy/gmrOmYb2qmOPx2EdvYZ4xiRjcglvPmghVM21iCuTd0/cVfXlS4myXqOIPT6L1/LlQ5yxoRkffHpiHAmyiPwoLd+zD0kuMicvbWDRyHJb1a429bNVBbJ0zQvxrH5aPGQ0NxmYs7XkHC40VfZ62VWN/YpuIQDkQoOiXA1WWmUkE9q+4GOfdsdNse+2wczB+8jS0zbgSrRc04J+MX048HSPrtX36txeNxDhd+RrFRKFPTBSsZytuO+1yPKoK+Pew9tMNuL5O/HPTLJxw1TPaKvmih/DBu7fDOnEv9vkHjuBvWhg+Tjx9JPSqool+vxD1kULU1dIkG0wjB0W5w0SAoMepAFn06+bjzU8fQauU75UfnYAf/Fr7gxVYuB8rLj4PFoy1GHbOeEye1oYZV7biggYTRVvbMtnh2GgiEAEBin4E0JiFCHgiIPaiZ14wFWs177rj0cTrpvsex5JrrcA1efVtBteZOb/CZ4cH8LmqpyPESvmgWCkrW/SWRwFiP3xI7IeHeSKt9GXhblyKnr6FkKclSr2+9sh5HV4MJZ+fPUdEvgtELIA3jMNwzvibcN/jS3Ato/nC0M40RMCGAEWfHYIIlBAB5ba7h+ffgCVdf4RnzJuybz/3VexdOVnsWNuFL8iMXNcQFH2PTfQ9hLscoq/s6x/a9rA4ubAEXX/0RhG1DZj76l6snKygyIcIEIGwCFD0wyLFdESgEASOH8V772zEltfXY/2L2/DewOdSlL0I5jsogvnEFra82jWD63zqMVz1x56bgtNyr2mpXO59fyMjrfR7l2F08yKx0y6e2puw8YunMdlRhbxFUTf/TXz6iO7Ej7jSl4s/fvQ9vLNxC15fvx4vbnsPA5rbQ3tEoOJBEaioRALwIQJEIBwCFP1wODEVEQhAYAeWXDgNaz5Vkp2MXGcffv4vVpbBQ6sxZcRsvKH+yQp463+yFSPnajvmtcJV/7lYypsH0XZ1YFzbSu2s/2k34le778Y45d9y0F2tuCf/c3FPvnR6bVfHOLSt1M62n3bjr7D7bjVXtD19W/BcHW7Z/DGeuEKqbFAE5DWKgDw12tDxexTR37EEF05bAw3GHDr7fg4LRuEBWD0FI2ZrKDoDH9lFiQARCEaAoh+MEVMQgVAIyG732ouWYnv3Qlyo36tzfPe9GD/2Hu2DNnW3YPPHT0DVTlsk/ijcsqkbK/5tuBD+I3jlR/8sAt3UKD57xD/sEfX1uZexe3WbehnP4KEX8eOm66Blk4/CiWNyy0ajeZG6ZgeuexlfvNBmTTDyHNmzbSfU5/Dy7tVo0yrDtiXfx6Rl+tFB4XXYJYIKzRv9o4i+LXpfHANcuh3dCy/UL+85jt33jsfYe7QTEnW3bMbHT1xhv/MgFFNMRASyiwBFP7vcs+WlRmCwFytaL8UdxiU7tcPQcOap+PpXn+Gw6d6vF7F3e8XevHWNjT1wTQT8NZyJk/9+2HRl117Ugd+/tQC2u2gcQYNaEOCX+Oufj+qxBO5z88deuAZnTVuvbzOchPpvnoovD7fil18IT0G+y3lEu5783r9irnZpgHiUvN+AqMy64U++DMjANZLoi7lE7wq0XnoHLBi12wO/+szCBGLy0bVX2G27DajUhLI8IlB9CFD0q49TtihOBNQv2c3Hzct+gw/l/WexHh029odY+uD9mNWirOTlRwlcexo/u3MRXtol7f2LScPYG57Cc7+41vvaWXGT3+M//Q8semmXHuGvS3L9Jcg99ix+IZ0SUH8Z/BDPzZqEuc/JQYYT8cz/vIEbPw36tK64JvjFuzHvriexVQ6uO6kel+Qew7NeNkYUfdVUNSDyZiz7zYe2ton7gzH2h0vx4P2z0GLeMxwn4aybCKQLAYp+uviitSlC4PjRg/jkfxWDv4ZTzmhAXZhbY0UA4EE1UwF5xNr+6MFPoOY65Qw0BFVk1iF9Ta+Ar+wNHhvAEeUiAOM2Pz9OzHpUw7Sb/6S0Fj757LbaFlhfivoGTSUCcSFA0Y8LedZLBIgAESACRKDCCFD0Kww4qyMCRIAIEAEiEBcCFP24kGe9RIAIEAEiQAQqjABFv8KAszoiQASIABEgAnEhQNGPC3nWSwSIABEgAkSgwghQ9CsMOKsjAkSACBABIhAXAqbod3d3D8lGTJgwIS6bWC8RIAJEgAgQASJQJgQO9vej5vBfPjFF/4P396KlpaVM1bHYpCJgzACTah/tKg8C5L08uCa9VPKedIbKY5+50qfolwfgNJXKQSBNbJXOVvJeOizTVBJ5TxNbpbOVol86LFNfEgeB1FMYqQHkPRJsqc9E3lNPYaQGUPQjwVadmTgIVCevQa0i70EIVefv5L06eQ1qFUU/CKEM/c5BIENkS00l7+Q9mwhks9UU/Wzy7tlqDv7Z7AzknbxnE4Fstpqin03eKfrk3USAop/NzkDes817iCN7GzCzZip6O/qwZ0GjD1r7sHzMaLSjA317FsAvVTahTn6rOQgkn6NyWEjey4Fq8ssk78nnqBwWlnilT9EvB0mVKpODQKWQTlY95D1ZfFTKGvJeKaSTVQ9FP1l8xGoNB4FY4Y+tcvIeG/SxVkzeY4U/tsoLEH0v9772t7WG+bkOdPS2070fG53FVcxBoDj80pqbvKeVueLsJu/F4ZfW3NFFf99yjBndjp5cF4Y6p6jt3zCzBlOVGUAz9/TT2CE4CKSRteJtJu/FY5jGEsh7Glkr3ubIoq8JfA5dQ53QJF95uKdfPCXxlcBBID7s46yZvMeJfnx1k/f4sI+z5oiiDy1Kv8la5RuNUCcDvVzpx0lq1Lo5CERFLt35yHu6+YtqPXmPily680UU/QPaXr7k2jfX+svHYPS66Tyyl8J+wUEghaSVwGTyXgIQU1gEeU8haSUwOaLoc6VfAuwTVwQHgcRRUhGDyHtFYE5cJeQ9cZRUxKCIot+oB+1xT78iLFWoEg4CFQI6YdWQ94QRUiFzyHuFgE5YNZFFX8Tqu1z8+xTXfnsPo/cTRnJYczgIhEWqutKR9+riM2xryHtYpKorXRGirwDhOKcvjup1NIlz+gzkS2Uv4SCQStqKNpq8Fw1hKgsg76mkrWijCxD9outiAQlHgINAwgkqk3nkvUzAJrxY8p5wgspkHkW/TMCmsVgOAmlkrXibyXvxGKaxBPKeRtaKt5miXzyGVVMCB4GqobKghpD3guCqmsTkvWqoLKghFP2C4KruxBwEqptfv9aRd/KeTQSy2WqKfjZ592w1B/9sdgbyTt6ziUA2W03RzybvFH3ybiJA0c9mZyDv2ea95vBfPhkyIPjg/b1oaWnJJiIZbjUHgWyST97JezYRyGarudLPJu9c6ZN3rvQz3gc42ctmBwgv+vuWQ1y354+SuJgHexbov+8DxFf4IC7n833Ex3rQqX+UV9zkB/0mP7MM8bU+rDVyN0N8wQdolEpz2iOXpybbAIiPApmP63fxi1Gvv5HAkGiz2Zac+P9OR2qpHhsGRjLp944+YIHcCIeNXeL3xQG4OW3tEg4a69vG2q8mdh645aGEg0C2B4Ewrddu3QQ6xPto68phMpc0jXYxWK94p/aENkT59PcM4HnLdq09TY5PhJfU0MQW5ve+K5jMwPMF4JrYJtIwDwRKJ/pK4abohRB9Jb0hxIGiL9I6BdMp2E5R3zATmGrOGhTj3BOHQNFXjRT5hBAbEx6nHYEC6yf6TsFXxDskbh1iwrROTGiUSZVzoiG32zXJyP8OUPSzOUYUwntyRD8CV+LdqJnam4AJSwTby5DFm/cok6kyGMciy4ZABNH3EE9ZaNSVpyReeVfYelkbg1b6TnHzEEdnPYYY54QHolcsTRSB9J04eKzgZU+Ckk8RfnUOIbXfmcZzxeEl+l6Cr5QttStIsD3FXcrv6XWg6JftTUpxwRT9FJNXhOkU/SLAS3HW0oi+7EpXxUogYrjEvUTfFMsQot8s0vQoii0Js5y/Wfym/ixtF8j2KJOQ/R6TCoU0c6Xv5bZ3CvABa7vAqMuYWOQVWKfoS9goNtjc8wWIvpLX9DLo9psTgcLc+kb/DRoE7hUTH8t54vzCouM7DEqhAqchfQtng7B1qvgmQ9f0dZiqbOWoT7O26jqgrMAsr0xOYGLs/KjJ1BWa5LURePeJrSR5oyTF72DspucTfZU3E/ocOjp60W5z7ysu89Hq7pzx2Plz/y73CzOTk2Op7xjf+BCVi/l7u7ZrmPsZcmvvN937ppteDANTPfqS+TEwy0i1b3q69/P2N2slnP99iJ3WQANcvItxdYzwaFpUKu94uxg+Bb9wvnM6r03aOx6Ev2mMZx2drh3KQOOZIDICpRF92U1e0EpfF6t87n1FUMVHfNRVtiGQhrjJq3hZ9E3x08t3TjIMtcgn+vIq3lmvOuiIstcqRgUJrCz6klteKcO1H1+g6MuTG9MeUW6Ql8Cnu+QTfaWl1mCuC7wpvh4uQf3lVmxR9lxN8TAHc0kMJBF3uo+NwdqqW8/nGoQivwOZz+jNu8GPNLkzxVCfrDU6+4E1QdP48uLK3VfcHDu/4GlMKI161ZmgbU/fEnW3vWbf8XDvO0Xft7/1GOVak1v/9yEdXSpokm/ESnhu6ejvd5M+QQ+P/1qxI2nFYWjjgnMBkQ780mplBNHP09RC9/QNcQoS/XuF90CZvTtX2HLgmyz6pmvfWP37bDeE2dN3ruJtAYaqEloBiZ7QOFz5chqXhyDMnr7DK+GKXfDyWoTrnnlF37byEhsRUgDUt32CoYzVvbIqP+DxcgcPJu7PN6stcUwowrWOqfwQ8ORdF3in10Xm7CqxLecV1GcN5G14JTDYzmcPWa1fmRcrq0CvfuAl+u4AQ7kPNgaKvo8ttv52wPVJca1Lpi8gMKzoe71v3pOlfPhfhY2eHgOfd5yva9kQKJ3o21aXAeLlFLsg0d9zru5aVwStTfq3FFlviq8ksvJK2mtVn1f0/VbwsoiHEVgP0fddlUcQfaVryBMRr2j+kN0n9CCQb5Bzuu/0Vbwq+o5PLgeKPjS3vsvdL2IfVJey7loM2TwmK8DD4ytipnA+D8zwcvsaq30tYO7cDmN7wGc151gxepvoJcZeou+Owrf1MXUbyR7IZ2unry1yf1NeN/epgaoWfZVS+f11v39+7Tfx75ouYo/VfSHXqQB72XxNy41ABNEPcmer816PPX1Z/BxlBIr+VVJ5ultdnTjIf9dX3K6VrweEhjB6TQRkAfVzk7s8Cflo8mm3Z9R/oe59vV7ndkbEXlO46Bsze8d+vu4VcK30I4q+b3Mc3oeIzc58Ni/efd2uqjCuw/Q+XfR9j+VKrnjnHrmIz9FW8MYEwWtiJ9MSUvTXTXfHesir+yDR9/FuKOOZNcnMJ/pJOMoYvjsX8r5rcTX6hAna3r/h2jc9Hfnw10Xfv7swTic8c8WlrKDoq8tD6ay/tEoOFH0RGehclXsGDH47+H4ABS/nUUE5SFCesChp852DD3Ttq6OaFQAoTyJkLLy2RQrZl49Z9LXVnHslVxrR5xGr4l7x4Nxeg3/olX6h3hbTE6T3F1+hjSD6HuftK7vSr2LRl2Ionhen+J13G4Rd6csTheCeyRTlQKCyoq/P7M1w4DDn9A1BtE0YDE+Bw6PQvt//PL1StzlxcJwasIm+Q6hdv4nfo67089014JzEpEb0/dy89iCvSO79KX5nhnmWuJSDQXF7+n4udf8Lb+zbOvn30TWRCLnS97g0KMqe/lqnB8ljT995KVAa7y8oaKWvOmUUF39OjIhr0Tvd7qb3a7+Fv76n75okcquulO9ymLIqL/qKVU7Xdr5z+l6rYK+/KROI0Yu1m/38Iuqd5+rFjFVL77E3n++Sm1KJvu3WQGUioglo3psMZU+FwXAiVvpyZLU+QKiHGzS3XTTRNwKkemz7+oz4DfNqh0/jd2TPhbO5Ss8TvR8Y9OaO6A8+oRFW9MW77DoJIvUdjz37qNH71Sv6eUTYxb/Vx8zo/Xz4614dOXo/jZOl8G9WMlPGI/qy2CkCLs5u+17DKwf95Y3Kf0RcwnOb9y11JvaOy2uMer1E32tyYhz1K5noq9Nn6+bAnNSGfP3F9/bBMIGF/gUXMvN3vqz289zK2NsnLvJU3ICay1PdAih0T9+4Xpjn9Ms6eoQ/py/EvqNJnNOXt1yCzul73N/gdc9CiHP6dqH1DuTT7hFw3ANhXujgPiaqeP9c1/AWbIsxOa0G97410Tbv0XDi53Fc1pg85cdfdGOe0y/ruxym8PCiH6Y0pkk1AoXczJbqhtJ4GwLVwHsao+fj7oaF8+6/rUb842YzfP0U/fBYVX3KwgeBqockEw2sBt4pOoV31YJ5t92dYK+P+BeOf1w5KPpxIZ/AegseBBLYBppUOALVwDtFp4y8u25idNdF/AvHP64cFP24kE9gvdUw+CcQ1sSbRN4TT1FZDCTvZYE18YVS9BNPUeUM5CBQOayTVBN5TxIblbOFvFcO6yTVRNFPEhsx28JBIGYCYqqevMcEfMzVkveYCYipelP0u7u7xTdorWfChAkxmcRqiQARIAJEgAgQgXIhcLC/HzVfDH5piv7bO7ajpaWlXPWx3IQi0H/oEEYMH55Q62hWuRAg7+VCNtnlkvdk81Mu6wzeKfrlQjhF5XIQSBFZJTSVvJcQzBQVRd5TRFYJTaXolxDMtBfFQSDtDEazn7xHwy3tuch72hmMZj9FPxpuVZmLg0BV0hrYKPIeCFFVJiDvVUlrYKMM3v8fExQhC14adyYAAAAASUVORK5CYII=;" vertex="1" parent="1">
          <mxGeometry x="680" y="30" width="509" height="87" as="geometry" />
        </mxCell>
        <mxCell id="b3VDB1ha94okd-puWpiR-4" style="edgeStyle=orthogonalEdgeStyle;rounded=0;orthogonalLoop=1;jettySize=auto;html=1;entryX=0;entryY=1;entryDx=0;entryDy=0;fontSize=20;" edge="1" parent="1" source="b3VDB1ha94okd-puWpiR-6" target="b3VDB1ha94okd-puWpiR-2">
          <mxGeometry relative="1" as="geometry" />
        </mxCell>
        <mxCell id="b3VDB1ha94okd-puWpiR-5" style="edgeStyle=orthogonalEdgeStyle;rounded=0;orthogonalLoop=1;jettySize=auto;html=1;entryX=0;entryY=1;entryDx=0;entryDy=0;fontSize=20;" edge="1" parent="1" source="b3VDB1ha94okd-puWpiR-6" target="b3VDB1ha94okd-puWpiR-3">
          <mxGeometry relative="1" as="geometry" />
        </mxCell>
        <mxCell id="b3VDB1ha94okd-puWpiR-6" value="" style="shape=image;verticalLabelPosition=bottom;labelBackgroundColor=default;verticalAlign=top;aspect=fixed;imageAspect=0;image=data:image/png,iVBORw0KGgoAAAANSUhEUgAAAYQAAABZCAYAAAA+alOWAAAgAElEQVR4Xu1da5RVxZX+WJNlG9DRRjvK4uUMulBB2gg6ARwbYYSIRB5NQJDWxRsDSEQipkl4TZqhXZFWgfBSegUQEWiFKMwASmAFARWMtE2EUYzSEGxJbF2K4boyi9nnXVWnzuOee7r7Pur+gb731Ovbu/ZXtfeuOs3OJ769AMnn4IH9KCoqkv2kvstiBGpPnULbNm2yeIRqaDIElNxzUy9EuTdThJCbiuA1amUYclMflNyV3DUEFCHkph54jloZhtxUCCV3JXdFCLmpA76jVoYhN5VCyV3JXSeEPXv2SGMI2o+9evXKTZTUqBUCCgGFQI4gcLK21h6pchnliNDVMBUCCgGFgIhAs2bNcOGCsydQhKB0RCGgEFAI5CgCihByVPBq2AoBhYBCQO0QlA4oBBQCCgGFgBQBtUNQiqEQUAgoBBQCOgKKEJQiKAQUAgoBhYAiBKUDCgGFgEJAIeAgoHYIShsUAgoBhYBCQO0QlA4oBBQCCgGFgNohpKcO7JyOaya8ZPTtxsexY/skdEzPnuZOr44vR/9+C/EnfcRDsPLjReibO6P3Hmmj4rIT06+ZAGNm3IjHd2zHJDUxGkQLlcvIF9YETu3dhOqrR6F/Yyjg1gfQbNBao0eF5ah59zF0ahCxh6z03DFUvvIZRt93R8gCmf3YuWOVeOWz0eCGe/QJ3Nx5Jo7oQyvBlgtrMDCzhxlP7xsIl8SpvdhUfTVGcRNuKx5oNgjGzChEec27eKxJJ0Y8EKZjLYoQPKSiKebTk+7H7G1XYn5jKWDaEMI5HNs4A8PGLMd7Q7bgwposN4FEfBtnDMOY5e9hyJYL4IbbQIYvHY1BUn2KG5fEKex9ehLun70NV86vwbucxVeEkJRsUnhYEYIUvO0Yd/E9eC7RyCuSNCGE4xW34vrphwxkSrKdEI6j4tbr4QxXIIREPU7XfYX/08H4Lq5oV4AWKUy4rCkaMyFsH3cx7jEmHG2ORUI4h7Mn/4a/67/+Ey69qjXy87IGybQaiCIEqTiaaEWSJoRw9Imb0Xmm4STJfkI4iidu7gxnuAIhpNV0TaPOxEwIWx9oBsdbKhJCGo07y7uSI4RALpBXl2Ll+h3Yuf8EvtaE2qoQffsOwvjxI3FrG2e5cXx5f/RbeAh//eQszunCz8Nlra/G5d/R4rw7sJ2iWcYzRpjRHfw9juX9+8H52SjDfhL1Ndj61AKsqNqPE19fgg79HsLsX45D0eHxATEEYxwVFWuw4wSN4pIO6FE8ClNHD0P3a8R1K9sPIxja89irWFpRgTU7NAxaofDBCfgFN34jeLfxi09x+ktjtYYWBWh/ZXP6T6oBVYrHvL0eq1Ztwc6dR3BGq1vrf99+GDlhMgZc77HuJlfC2+tX4Vcrf4sjWiGS25DB4zFm/F3o7LlMPIePD2xE5eJ1qDLl3apwCAaPn4DJA653Vvh6EH8jvvj0NJzhtocx3JX4eBGFj0METzV57lq1Gqtefonp4yiMGHkvp1uWDrD6M2Tlx1jU8xheXVqBijU7SB+0IT6ICb8Yj5G3tiHtS+3DtnXj49vwdMFqTJpTZehdj4mYs2Iq7rjUbINcZ2w/LunQA8WjpmL0sO5wqVcQIeh1rXQw0UXXF30Hjcf4kbfCnnImvof++gnOGhMOeZe1xtXGhDMTK0IElWknV7NrFVavehkvGYqCwiGDMWrESNwrw5FJ4NDn9egWnJ5d0qEfHnjkEV5fbFGEtyepSa/xS2c/ISSqUdG7B6bvN7VNxDivI6a+shfP3HWV/gu3Ohaetbay3DOu4C+/4hS3v4nqCvTuMR2u7mj9GHMNFi/bYbQq1lu3D3OH/BDzpOMoQN/lr+F3E7swBoTtx3CULarFgun7TZJjBpbXDeVv7cNjXTTTw+6MRKBSCajWYeu4rhj+3GmYNCNULus/kPhgHR68cxxePC0pJcjNrpDkveLe/8CknWels6lFj0XYv/sRGMNlgviu4ZquMl/Dl0D1imL0n7YNsi4irzXueXo7qji58Do2vGwRahdI9IEk2a38Lex7jJVp8gaC1dW23brh/KFDsJDJH74Z728ohqb5dfvmYsgP57n1UmuyoC+Wv/Y7TNRBMz9+uNSRHt1EQWC5CJDXrRxv7XvMkAFXj2vCmYkV/jv2RPUKFPefhm1yIaD1PU9je9VEoz3rw8i+8Gfl6LZ+Np6TlC8gl+l7FFQyrAN9krQnyUusaUtkPSF8tPR2dJjyho5yh5LVWFvaB62b/w3VFRMw9KlDhoEqmIrXa59Bb1KYRP1p1H21C4+2H43NeqlOmLV3OyZcQ97LS69Ca1qVRiaEeopNdKTYhDlRCvrOweqFY9AF1Vj9+BjMY40YRwgfYUXvGzHp91pv89B6+CJsmjsA+ac3YNqImTCKFWDq67V4RhuE/uGJSSvXcewyVM7og/z6V1E6cDJeNvuRN/gFnHnpPuQTXWi+2vdX9kdR2VGjmqGV+OTJ3vSf6P7zxK6foFXfZainWvLvLMWaJ2lyXvENTr9aioGTXzYMVN6dWP6n3Zj4r9bE242H2/bBYv3HFugxYwOWTO0CHJyPEQ88h+M6FEIZEPE8cBO5HoyBsfhWTBiKpw4ZxFIw9XXUPtMbeefO4uTf3sfK/kVwhvsJjOFegXYFtGvxMXx1ZFRuIj+H0f+OGLusEjP65KP+9acxcSoF5PU1SAF53d6jQLVtUlyLjryOY7Gscgb65Nfj1dKBmOwIBi+ceQn35ZuYRPhHXODkdSvFtrUTcd2ll+Kq1vnGAuKjFeh94yQY6tUawxdtwtwB+Ti9YRpGzNxpjI+ZI3o3PHGpx4YhrTDiZa2yAgxeuhULBrTG32khNGHoUzBEkEeYfEmY6BNOj9HserQ9RhsTDp1m7cV2Y8KZffQhBI58WB1/HU9PnIrlhhDgMuziYoBIb87qhRhDKsbZBnTAnEMfYm5Xo2/J2pMIImvSIllPCI5vMh/DN7+PDcXWxPwIS2/vAIMr8jD4hTN4yZ55/iuSqIRQu6I32k36vSHwDqU4cLQMP7Dsd+IgZnXqjgUnTH1gCWH3w2jZZ7FuUMWdQ+LgLHTqvgB6sZ5LcGLfZBg2lSeEvHvX4pOto+yVTv26gWhZ8jujsXwixM+JEM2m444hsPUVlh3Bm6XWqjeBXT9phb7L9JGhw5xD+NCceSxW+bRKO0GrNMsu1lHf21PfNduS/9BOnPnNXYZhOzwX13abZ2CR/xB2nvkN7rLw/Wgpbu8wBYa4BzOGNiCG4GX4EixhibpFdo5k1pZkphvTfNpdnaB0VXMAHL5592LtJ1sxylLL+nUY2LIEhmTyieQ/J5I3BRPhH54QemLJiX2YbJGuWd/uh1uiz2JDBvyONoGDszqhu6mUPZecwD6rsBcutUQu7YhcXPqYQNV9F2Poi0aj4s7ZP4bgNR8T2P1wW+q7sQBgdzz6F4KMSracIBIyhcARQgeUHjiKMnsy0lxsR3PRfHHYnctPYvfEtnqV0exJBME1UZGsJwQ2e0HDuEXBD9Bn1GAMHnAXel97hQ27tfo3vmgIQuAnRCcyjDVkGNlP9YLOKJxlrswZQjg4qx1NSkM73eXIMLWklbQ+n8m4fE7GRdd53tCxSq1XVL0AnQtn0VPah3cHxU0IXNYStZZ32XXo2X8Eiu//IXrf1Bqay17/WKtyor51A1vC4qvhm88TkTP7fdbotCViPUnESsXZdvLGbsP5Z/sz8HplqkQkBJakmT44DbL1MitiTTJs0P7O5Ti5eyIMc6MLBgs6F8JSgxIxDZZVmBD/59rqVIYjNaW0I2U/rPHrhLIjNeDUkh0nLSo+p0WFoV4e5zP0XZeRD6TLs/k3OPm/72H3rkosmr/O3DXFRQis7rclo36SjDoPCjv+PFpYfEkLC12TWEIQFkTEJJ7kFc2ehBBUmjyS9YSQqH4Ct98209yqiqi3QMEPBmPOwv/CuCI2gNcQhBAim8Ujy4hdPdkBN3so/2CCouykiGjoRIMVR9qpr0+ZgvbX9cTYXy3F/GFWwJfve4sCM9Brj/kbJujvkGC0TJVoOHGGlnzx58kXLwaAvfrjT7gh9CQJ4+FPPrplZA59OQkUjnp9gU9Pf2m4Vlni84sh6AHlMpQ98wr+aJUV+hzLDoHrw3BsPr8B7LpBb9Ircy8go89LdtHsSRICa+JHs54QNHzPHduIGaMmoPKwqdgu0MlHvfhNvDHFOv6YvoQQpC/OijKaoTMWf/GnneoH/aaOxvwtf3YHtvVBUWxk0kt4b1l/WoGK8Q+/UTsnV5uMEDxIM+0IQdpPv0QCEXdmJ+lFCCL5512G1t8vwtiSabj0933wMzNOED8heCQ9xEwI0exJ0KxNn99zghAsuBP1J/DO/h34n+erUPXamzhq5blpD3DbxoYgBN4N0m3RMbz9CJ+OysUYGJcRa1jsgJuHDn33inbQYqGiy8jlevBZ4TUEIdjdJZfCH9/chl2vvoyXN+4VVpAUJD5JgeW2PCEMrTQDvdIxOweVWNea22XkNemiEWei6j5cbDnEuy3CsbcfEe6d4uXNuuyabIcQSAhOAoUcLSaxwEN/Ds+9Ft3mGYGwvG5l2L+nFLeYGcV+hB0phpCown0XD4URluiGRcfehjClwMXKWPdcxB0Ci0t4e5I+Bj+oJ9lNCGfWY2T3UuzXUbgV8/6wCQ86zlqc2zsdN/SqgOGdZ1cY/oTAKZmYHprYhZ+06gszTsoFzzh/pp3ZY4mIzc6g75h6WaLg/KBa0cPl6F68zMjrbzkGL7wzG931KqMZOr1krDuEA5h/ywis/lyr+RKUrKnBfzJXIyVOrcLAthNgJNs6q33vQCdQXzUW33/0dQO4HgtwYP1Iyjonzy9N8sso68c4YC7eBVWPqrHfh1PsANaP1EpFxIkNUkMSrK2j4HB7Cg7rneF/Ty9CqKUMtnaUwab1k491GOrVHcXLdO0i9XoB78w2tEseQ/iKMoz+mTKMjEf4XYB/OnYkQgCbGKLlVDBBb70HdRSLak+xKCO7jPs9CiFEticGHpnwyW5CoODk1gc6UBqikUFRULIZ76wqNg/F0EGpjQ+iy/AXjewdLkOHD+y5gpqU2dOOMnsMIinE3MNvYI62DNLuY5k/GP0WmOms4qRg0/u0dMTN72BVsRa7oL5UjcctQ80URmM2OZfb1W/AkFYjoGfyURrcQ9v3oOJurVwdBb9uoMwNd5ZOZENHLXCrX2kgMjnV5ohQWDWee2ceenada1wex2YGcRlDd6LitVfwUx1jks2/UdBVLyBkh3FZJZTHX7Yfe0pv0Q+ice1wWUYBwX6f9EpWt7jVsHYpYMkdGGOmjxZQgPs4BbitLKn0IgQi2A1D0IqsuKFeD2H7ngrcrZ0cq6MV+A20AtfVi0+/9Aoqs0HXvHtX48ONo2m+JfDBuhHoWWKmGIvzgv7mEipcMRnvBVo9GfYOtAjQu0hnasr270GpviWhw2OVJbhjjNlmwVhsO/4s+ltCiEIIke1JcvOlKZ/OckIgaMmnOa7rcOfQiXXy9pu/4hP7aCR7OEsTh7Ba18pc/i0+7f1bnNdvPhN93BScbn8lLtJP+BLxFDTH2bPyNL7qJ27HbTMdwtADpjD6kldQgOZnz0rTS7mcd/P09CVfOyeKucM+ukZFXPlqRVljbLZ10ReXY8abEW+ZFA/zaH7lqy/Hd/7BBCxd+fp06IvDysCYosn2iVZXbrlGZkISgY7vRX7taMN13ByUAkV9uwhfXD4Db2q3zfoewNqFh4t+hMX6oQjNIGllL8HX7Mln9iCcOdPTjRC0lTR7fsM9DskhOQ9cuHRbHRI6dUz423PNxEB06XGkRBRe0P5yfPtpb/z2vHa7rN+OvQ67Hi7CjxYfNw89GoFxdm6gRQ8s2r8bj7An0yIRQlR70pQmPrm2s58QNDz02yxHY8rag7YxMWBqgX/pPRELl87HMOHqBO2U7Lh+k7Duz8wJ577P4S87xujuCdTR4bV7foylTKA677KuGP3cC3joxI9RaF6O476oi1ZLVT/FiLGVOGzdl6D1Y1A5Nv/yHMZ0Na9adrk8tKu4n8XPH52FTWxwnIxQ19Erse7Xw8APIQVCIAOxb+5wDFi4177SQTtkNH3vZ3gy6k3Y+m2WUzF+wX/jA3vcuhXFZV1/jLInxUwvXXB06+psTH58BXazcmjxLxg0uxKLpxU5VyAwep/4oAqlk36GFbvZALaWzXQ3SlctxjQuo0yTJZ0CHz4AC/cySQcF07H3sydxR9AVDdq4nv05Hp21iZGnkVp7d+kqaR/TjxA0JvUaB+n0ynX4tZ0BZrOax7Xghn4XP2gdzDPn2aDZqPxlC8zrOsU4oyCeE0l8gHXj+mHSOlZmffHcX3ZgTKugu8W858Z1d5di1eJpKGKup9FHEJUQItqT5Mxy0z2dG4Rg45tA/ek6fKVfXRnu5O25syehp1XbOfK8sIyTzVQh87v9HT3Kn29gy1p9YW5vZG/WtE9pSpTDzvX2u/mRHavWPSvYbNYX5hZP+5l4b5i0MU3i5koH03By00fJjNE1fgmsdhss9mFwMusK0hWrSVY/3HoVILckbYV/W/LK7HH46WAgLta5D1Z3QozN1m1Wzkncdiot7zeH9EnqnNoWZRlqDoe3J0mKr9EfzzFCaHR8VYMKAYWAQiBjEFCEkDGiUh1VCCgEFAINi4AihIbFN4tq56/1Djsw68rwsM+r5yQIsO/aDg1QqteVh25IPZhFCChCyCJhNuxQkjk97PTEHVRv2F5mZe1+13R7DjiV68qzEkU1qBAIKEIIAZJ6REOADwiGxcQ7qB62BvUc2AvjQsORRPA9dJ3qwWxHQBFCtktYjU8hoBBQCIREwEUIe/bsueBVtlevXiGrVY8pBBQCCgGFQCYicLLWfBEEdb7Z+cS3UkI4eGA/ioqKMnF8qs8pICCuGFKoShXNIASU3DNIWDF2VbmMYgQzG6tShiEbpRo8JiX3YIyy8QlFCNko1RjHpAxDjGBmUFVK7hkkrBi7qgghRjCzsSplGLJRqsFjUnIPxigbn1CEkI1SjXFMyjDECGYGVaXknkHCirGrihBiBDMbq1KGIRulGjwmJfdgjLLxCUUI2SjVGMekDEOMYGZQVUruGSSsGLuaIiEY95RXl9fg3cesF9SLvTOvPID4SsMYR6GqajAEUjEM2msRq4ovQH+nUEof8z58j5fZR606Sv+Mdxl0wZYL2otbPD7mVROu91hH7WgTlEtF7rF0V3sPxf3A89pLivQKTTvSZQsupK5QSXQxXLuGXgDlNRFfIpVEjxry0RQJIUzXFCGEQSldn4lsGMwXy3TZkqaEEGv/BOkpQkhZnfV3LFdnziJSEUJokStCCA1VGj6oCCGCUBQhRACNL6IIIWUII1WQ4g5B5jJiX3dHfSopR3n1TMxULqNIAmrqQp6E4LqBs9DZLou/Wa8D1b+vFrbVkgUD99pKoLC8HF1mzsRa1mXk1YYOmKOX82o6g97Bbn7MG0B9y/ojLnMZca/EBOFQ3gUzZ65FVrqM/ORuQ+e+GdeNhWAnYN3O6lVW7rrhsdfsDeNSsvVtHmo6D4KjBsm4neTt6oTF6FV5eTXJPOddRgIhWBOZEYoNnOsdwU1t6lT7YRCQEoJkBewylDKXTBhCMOt2rs1mDISpV5YRcIyMSCqOsXGeMb+z9DCiy0gcp6HfDBkyZJZ1hBBG7iYZr2Xnu1jO0044V3a7dwhuw+zCXmzbJi/mKnCXfgXNArFdSx/dddLSJddjCDwhGAIS72FXLqMglUvn32WEECqwGokQ7sG2mztLdpNsUBl6IgO3W9AANNujGUkJDh9Kn+H6HQchcG0ySRVZ6jIKI3cvXzprG0g4kviAIWOK1utJCIGE4CU/FntoO1JxpxYuSOzMSeF5D9mqGIKwNadkADyhTWZJFkCm+QPT2UA3dt+kOwRmFez5ApxIhNAR5dKsNWZSFldJJrnOCIz+GaQhZr/FTgjSHY9DTvEE1Btb4kZ70eTus/izsXoeuF9uJ9iRBhKCF/aMu/DdjuXeLsrQ2Uo8IXiSomd/mkZ+UVuNMYYgX5UZizdKyVo/EjV2ClnU7qpyjY2Ad1DZ7evlyCEKIei2QnfEutKYdQMB8v2ahOCJg+5W8iME088LSmuktpI12qxBuNYz1ZBf7Ta2zOJoL5rcg96qp7lUTH9+QApxECF4r8gZr4UfIYSOafKEIPeCWIuA9RiZ22mnrMtI7RDimIjpVkfYLCMrVmSTQhRCeDfsDkEMTIuoyc/HcEYkBkIYmGs7BIly8nL3tgFO0XBnSoIIgXxKktW/1krDEoLaIZiSlL8PQcUQ0s2Ax92fsIRgTUTbtx+aENhgb/gYgvswJKuLxm5V7jKKb4cwMMdiCHLd4g28l8Fkv5fHECQrce4cguDLD4O9HkMIkdXmO2lUDCGJF+SIKzE3+9tpYSrLKG5b3Sj1eQeVhRQ7V7DNJyXZLwtNMtHtTDXPLCMzCGknNITYIXQKc8reDbFo8NyuC1mGU6OIKtZGUpU7l2UkylSSZSTi6CaWqFlGMROCtgcRk2fsmJrKMpKsxIT8YiKC8i50DiGDTh3GOrMyvDKvHYIr/5vGKaZZOrnaTOaZ64xBDfSzAqx+CM/YZ1nYQGDIcwjslSqi0ZH2L0BewecQtKM35aimpPRk4xPppCqpyN0O8B9xRhT+HIJZxpW4IHdHiXrIxbHCpDkHgh7mHIJ19iTIlRnYWJM/kGJQucn7rzrQwAiEdxk1cEdU9Y2KgJJ7o8KdNo0pQkgbUaRnR5RhSE+5NHSvlNwbGuH0rF8RQnrKJW16lSuGgb+KwAv+zPcRh1Ws7Jd7UIqshZR40DYsgpn5nCKEzJRbo/U6+w1Do0GZUQ0puWeUuGLrrCKE2KDMzoqUYchOuQaNSsk9CKHs/F0RQnbKNbZRKcMQG5QZVZGSe0aJK7bOKkKIDcrsrEgZhuyUa9ColNyDEMrO3xUhZKdcYxuVMgyxQZlRFSm5Z5S4YutsaoRAh0f0F4l6fehQGt1SZv56FHSbGMAcVnEVo5Oo9gt46eIwzKSH2TrohKDzlotC0G15MF+4alQl9oetT39gK13jSFfsWh/X7/SD1a7noEqACzRmeyza33SbGvdh2uEwsB5ifqeL3MC9j1ro4xb6fU4AbmJf6Qph1wt/bewkuPmok9ww7MCSF5fhfZ9yN1y/BVOoKftzZAEmH3tLKNEG/959Ce5r53z9/htTsOTUKZ+ab0Px8FL0pieCn6WHmg/ElHZnsERv2ynLNuBVDz+Go9jwyiz84RutpLsepw55G1opv2e4PlCfi1seRpUvDgJELR/C0rv68V8ymH+vTRnm9PR677kbbiV3C5Pclnuz84lvw19dEUQIGqa2QQxBCNrzlpEOJAR6VjSmojEXDT6dXGRec6R1zk0qgYSgd5LKkZG2yFDsR6Dx9SIEkQw0wx4St3Ii0/VEdhrhiiTEjttFQD62l36KwzDs3jUIVZ/7tMMYs1BG3jTIrQLJI4gQgokNdt9Yw0D1CgY4FUIQyWDKj0YDIcfmEIdIrszYNFKkOm/wFzX3q5K7RbC5LfeIhCAxrKwR0lesjGHzXZmbdW0L2iGIhk9iOMV2LENNr/WkuwUM4+lJKpKVP0uAWjmNFPTX6DHjF5/hVv/WnJMRgowMtOeZcQUZc6nhZ8pLdyupEULQypM1duKzLFFYv/ka1pOVmHdgKz6jLmvPD8MyYzcRZPDslTK7emcnuo8xpbaMnYJgGOzvDfyiEoKMDDTDbX8fNDbIDb9Tr3sXFoYXgghByT035B4fIbDuGd2QEYCWm0VGCLYhDUEIhfTMEc2aM0abLV9Iv+k/My4otj8aQR2XEI4mY3uHIHMFicb5Q8cFZbVlkY6v8RUJgcFG6wPn8kmCELSy9u7E7L9NEsm5iiyjkZphcIyVlwFxSMEw1s6qX+Z6cYxyyoRgk4SXwTT6Dtv15SYElogiEQLrRhMMf3hCIEkx9RjkFYx7ECkouVsuz9yWe3yEwLpektohmIbMz2WkGVu6ME9fnVvG0zJ87OqfJQTbMJr1iwRkuVf9CIFd/YvtajOshOpeq3UqyPiyhMC4elxkkOQOQZ/lTN12f+jroN2Fh4VIyTAEGl1q1F71G4a5sNaKIUgIgdkhaIavz9fms0GraMkOwSaioLI2LoxhaN4G3/vmlL1T0XzzSRPC9UCVFVOR9CEpQqA+ssR6Q8u38L7mogs9NrfwldwtTHJb7hEJwWe9kWwMwTJcQYQwj3Yd9L5UexdgrYzZICxLCLa7yNo1eLiwwsQQxNU/F+wWdyYybAT3EPuIa2cRJoYg7GZcsRLZbidojWj8HmQYpLVY/nWpq0Ys4axmOSPv1z3T0IXxs+srZlgBbYdkbAMqC8ZK22YMA5WZ0vwVM/gdgsjM+vziI2IQPkwshS/jjoe4AvvhRK7kzuGU23KPlxC4VWmAYRMNYRAh0Nu1jIwhzdgVM/9nMoBsQmAMMOuOke0GfAnBa+XPGvgwxldCCJ6r+QiEoCk0S1KyrKOQxiG9CIF374Q2mkkQgjQArpNGGyfLSP8bTqYVRxBhsoxM8JvfRoFeWs1LMpdCj80rkys00ckVQcmdcFFyR0RCCHKRaEonW5GzhlGoI5AQ7mFiEqarRicV9ntzN+BaMUsmgWU0ZSTBGlcv14trB+JncT3GLc1OSjKGYDUrushCEoD4WJBh8A0uxuQykgWftX6Gdqsk4TIKTwiU4smmdZIb6TNyI3mltnL91f6wDDbjBmMzl0KPjRMYv9vi0n6TlL+Suxch5JbcG5kQNJ5gzzIwq+tAQqAotbialwavrw0+/6BNFjHdlQ1Ys2SmPeuX5y8LmLsmo0faKYuFzNWWTBwgHQiByYBJLajMB/YsV0hooylzXbkCsaKQeFeBe4dg5Py7CSTMDoF/hq0j6bGlIyEouXNS8YovZdqEK7UAAAJ4SURBVILcG58QNOjYFXyYcwiWseTIxNphCDuRmce9zwtobdukImQ3cYSgd5I51CZxC0XdIfidpRAJLuMIQTg8Jrgxkks7ZX3kQkZSUPA0MO3USi1l5jGbASR1HZiHwNgVvl48eUIAmzoqnrEIGltaEoKSOysW74SDFHS6keTeNISgDU50l/idQ5CtnmXfaeTSeY5x4tkr80c8N4D7zeclRt/vgFdchMARj0ZSzwP3hzip7HkIL0xMw9ufkJLrwKw22sE0iWEVTt7a5xB83SFUj53RI9YZ4mAa1e06h+B5KC0qIbgNqBO09huc93hSCShrLSq5K7nrehDtpHLUGAKr7MJ1DyPXe19dIbvOwjaI7A7hGTqA9rD89K7dtHBwy2rXtUMwC3idQo6NEMQdEzMGP9uQxoSgd9u1kta+9Lu6Qr7SdsilDW5oSYb0c79rLkwD7UkIJqDSazXEXYPoQmKvifC/3sASm39qKn9QLvTYzGs8jDbSJIbA6qmSe0BKcnrLPTlC8F2ZqR+zAQF1yVk2SDH5MSi5J49ZNpRI7XK7bEBAjcEXAWUYclNBlNyV3JN3GeUmZjk1amUYckrc9mCV3JXcFSHkpg6oHYKSuwsBRQi5qRTKZZSbcg89amUYQkOVVQ8quWeVOEMPRhFCaKhy80FlGJTccxOB3By1ixD27NkjfUGOBk+vXr1yEyU1aoWAQkAhkCMInKytdWJJSZ1DyBGAcnmYtfQCmrZt2uQyBDk5diX3nBQ7RLmrcwi5qQeeo1aGITcVQsldyV1DQBFCbuqBIgQldw4BRQi5qRBqh5Cbcg89amUYQkOVVQ8quWeVOEMPRpT7/wODsAHXPqYu6gAAAABJRU5ErkJggg==;" vertex="1" parent="1">
          <mxGeometry x="450" y="280" width="435.95" height="100" as="geometry" />
        </mxCell>
        <mxCell id="b3VDB1ha94okd-puWpiR-7" value="" style="shape=image;verticalLabelPosition=bottom;labelBackgroundColor=default;verticalAlign=top;aspect=fixed;imageAspect=0;image=data:image/png,iVBORw0KGgoAAAANSUhEUgAAAYAAAABVCAYAAABAQzOXAAAS8UlEQVR4Xu1de4xVxR3+Nk261a2xqBtjeBgLjbZud7HiC012BcVUjYCaquhilIc0PHxUXYOJgqmU3UTXiDQKVVMXV6WgoNJUo9s14oJVzLKChQg+WAgS1G1j13JJmu2c551z7rn3nD3n3HvP3PPdf8S9Z2Z+v++b+/tmfjNzpupI5ugQzM/WLT1obGy0/pf/TQkC/fv3Y/SoUSnxlm5aCJD3dPYFmfcqCkA6O4HsNQNBOvsAeSfvVd3d3fYMQIOjqakpnajQayJABIhAShDY19+ve8oZQEoIp5tEgAgQAT3oV1VhaMgY91MA2CeIABEgAilCgAKQIrLpKhEgAkRARoACwP5ABIgAEUgpAhSAlBJPt4kAESACFAD2ASJABIhAShGgAKSUeLpNBIgAEaAAsA8QASJABFKKAAUgpcTTbSJABIgABYB9IMEI7MaTl1+G5Z8YJl696gs8OiXB5tI0IqAYAhQAxQhLl7k70Ta+Di3bDa+bNwzhuanpQoDeEoFiIkABKCa6rDsiAhSAiACyOBEoiAAFgB0kwQhQABJMDk2rAAQoABVAYuW6QAGoXG7pWRIQoAAkgYWU2TD4xRasfXYF1qzvwd7/COdPacDV0+dg7vwrcUaNDIafAGSw/4NOrG5fg/U9e6FVhR+PxcQpl2HG3Pm40lmZUfHgLry+chU633gTPXrjWvNTMGXaHMyZcQ5GVXuQEaaMqCaz/wN0rv49Vv15Ow7q7VyN6XNuxZxL6zAixnZS1n3obowIUABiBJNV+SGQQd9TV+GSeW/isNejNRPxaE8X7qy3omMhARB1tV2Ec1s+RMaz2VqxaPyxWDQ+2f4209eOSRPvQs+gt53Vpy/Ea+88jkuzRRCmjAj9+HTNzbh49ks44GFcfO344c3viUBhBCgA7CElQ+DQxpn45bQOI/jXTsGDzyzHrfVAX/tcXPuYGchrF+Lt/scxSdeAAgKwbQnGTViKveKp6gl3YN2qO1F/zAG8vngq5r9iyktDK3b03oszdQ8/w8qLxmLBe9q/x6L5mQ4snjwSx37Th/a51+KxD41IXbvwbfQ/PgmGBIUpI8J/1yKMnrzC8FOI2t0vPoGFws+tD92AmU/v1gWr+uIn8UnXbfhphHZKRhwbqlgEKAAVS23SHNuGJeMmYKkWsTECv33zIP54qTXSlwNtNaa/cBAvXz+ioAB0LToBk1cM5NbVtwx1DfcL6dA+zdgw9ByMnaMbMbNqGjr05q/Dun++iGuskf5nK3HR2AXQtaF6Ol44+DL05kOV6cdTk8Zg3t8NP5s37BWzEL0y8TmENVNPRfOrmgTIGISxLWn80h4VEaAAqMiaijbvbsc5Z9yFD/UgOwubjvwJl0t+DB7eh2/+a/zhB8edjJF6kjzfDCCDgQOH8N3/9Kdx3MknAV9/jl29XVjXugwr3z1gpoVkAfgrZv/oCjxtp2RqUHv+ZNw0fTquvHQSxp1oGaPVN9LM0YcoM7AGU09oxqt6dUJojgihkfL9/U9NwhhDHTB68Rbse/h88a8Q7ajYB2hz4hCgACSOkgo1SKR/qkT6R/84UjOF/C28BqAtALff9wg63t+Jw555fVkAfNYMampx/vQHsfwPs9ForwSHKLOzDePrWmCcXRMic+pJOFZ28fuv8aVl7FUd+HbjTWIuEKKdCu0mdKu0CFAASot3eluLVQByA2ZN7Zk4b/pMzGv8CktvbPdIAWnQD2LX2rtx09xnse3f3kvHWs5+xfvvYYGxcDD8Mg4B8KHbIYRhbEtvd6Ln8SBAAYgHR9bih8DW+zHmgmXo157zSAF5F88zAxh4EVefcgNe0WO42O2z7iOsvmaUsXDrCMDyDEBuQaSQ9n6Enjf+hufXr8dbrhnECLEQ/K1YCHZ+ApZxtH8tnv3yEbhrsuv9wXE4eeQIc8HZ+mvAdvzw5vdEIAACFIAAIPGRGBDIiIXO48UirB60G9C6oxf32qNsYGD9LJz1u7eNhiYuw5bOGTgl3xqAtAPIudArduCImcbxItVkjO+zAnBQ1HfB4h6j/nOW4t2/3IzRtluDeOeun6OpXZcn7aVDGBIvHQpTBujCohMmQ1+fzvFzAOtnnYWsm1vQOeOUkO3EwAmrSD0CFIDUd4FSAZBB16LRYueOsUWzesLD6OlejF9pB78GP8LSC8/GEj1xHmAXkLygLLZ03vPudrRdJCo6tBn3X3kJlplbOh3iMCAEaKwQID0wu2YNmf1Ye3M9rntJ/xIXPrEXm+eLDZphyojy25aMwwRjuxNGXNyOt167Q/czI3YonSd2KBluSruNQrZTKubYTuUiQAGoXG6T51mmTwTqc9FiBWix8HrqST/Ev746ACslXytG3x+L0bexQzPfIvBnYqvlL8RWSyuPry22/gRHpXoM5yfg0V0f4M7Tjf87tHE2zr7uaftwVk3tqThJrNB+//WX9iJy9YRW/GPzvbDOooUpIyK9h59io9KXh8UqhClArkNqodpJHsO0SDEEKACKEaa8uZlPsX7xPNzzVBc+l3buVB//M/x68WqsuL1Reh1DgV1AYrTfNut6PLDJ2vIpBtXHn41bVq3BVZsn4nIjB5MdzZvADe5ai7tvWYCOrVYwNr+oOQ2TbluOlQ/9xvU6Cu3tEcMvo71yYu0D83Gfy8+a06bhAfEajNsbzTULidBQ7SjfIehAORGgAJQT/VS3Le3lP+ZEjKl1vATIREbe7w8cc+IYuB/LDBzAIe1AgFzH4GHsyx4q8FhoFdVnBnDg0HfQjxLkbd9FUJgyYjXCPrNQ1HZS3ZnofEgEKAAhgWMxIkAEiIDqCFAAVGeQ9hMBIkAEQiJAAQgJHIsRASJABFRHgAKgOoO0nwgQASIQEgEKQEjgWIwIEAEioDoCFADVGaT9RIAIEIGQCDgEoLu7e0iup6mpKWS1LEYEiAARIAIqILCv33gFStWRzFFbALZu6UFjY6MK9tPGGBGQRwQxVsuqEo4AeU84QUUyjymgIgGrarUMBKoyF81u8h4NP1VLUwBUZa5IdjMQFAnYhFdL3hNOUJHMowAUCVhVq2UgUJW5aHaT92j4qVqaAqAqc0Wym4GgSMAmvFrynnCCimQeBaBIwKpaLQOBqsxFs5u8R8NP1dIUAFWZK5LdDARFAjbh1ZL3hBNUJPOGKQDiVqWqaehr3YFe+T4/h3HmO9zRih2990K69a9ILrDaOBFgIIgTTXXqIu/qcBWnpcMUgCBNUwCCoJTUZxgIkspMce0i78XFN6m1UwCSykyZ7GIgKBPwZW6WvJeZgDI1P0wB8EoBGX/rsBxobkVrXwtamAIqE6XRmmUgiIafqqXJu6rMRbM7mgDsbMP4uhZsFxd5D4mLvLXPxplVmKapQQPXAKJRU57SDATlwb3crZL3cjNQnvYjCYAR7JuxYeg5GOFf+3ANoDxUxtMqA0E8OKpWC3lXjbF47I0gAEDb+Dq01GdH/5ZJujD0cQYQD0WlrYWBoLR4J6U18p4UJkprRwQB2GPk/qX0jz0HaBuPus4Z3AZaWi5jaY2BIBYYlauEvCtHWSwGRxAAzgBiYSBhlTAQJIyQEplD3ksEdMKaiSAAZ5oLvlwDSBinkcxhIIgEn7KFybuy1EUyPJIAiD0/OWmgnVr6p2U7dwFFoqV8hRkIyod9OVsm7+VEv3xtRxQAzXDXOQCx/bO1XpwD4CJw+ViN0DIDQQTwFC5K3hUmL4LpwxSACC2xqBIIMBAoQVPsRpL32CFVokIKgBI0lc5IBoLSYZ2klsh7ktgonS0UgNJhrURLDARK0BS7keQ9dkiVqJACoARNpTOSgaB0WCepJfKeJDZKZwsFoHRYK9ESA4ESNMVuJHmPHVIlKqQAKEFT6YxkICgd1klqibwniY3S2UIBKB3WSrTEQKAETbEbSd5jh1SJCikAStBUOiMZCEqHdZJaIu9JYqN0tgxPAMT7/8Ux3/zWiUNg4rJg8/udEJcFAOJQcN6PeJEczHsExKtFAfMEsV2HeKto9qaZBoi3y8FxybDbHrk+vdGNgHhhnf3J+V58Y7Wb30hgSPhs+9Is/v8519NSOw4MrMek78V9ynDcp+yycYP4/kEf3Ny2bhiC9D5u41sbOw/cClCSvEAQ5B7q0v1gKrUlb97DYK+9Dv5G4PleqZt7/a1SkVTLr3gFQPPdDoABBEB73grKvgIgnnUHT3fwdgf4jTNh3E5jfTyCoa8A6EYK8RFB2RI/tx2+wTafALiDvxbIA+LWKsSzU4ibJrBu0ZH9zhGcwh2UAqDWDzgua2MTANH3qqb1iZ+qJABef4vLcNYTCYGQAuARSOWgo49IpUBWcORt1rXJbwbgDnQegdLdjhWYxTWVENdU6sEyr4h4jOzlGYZWThMBXU8k/93POEb3FjdeAuAV/LXnJb/8grdnoJfKe85GKACRfjEVWpgCUKHE+rgVnwDI6RY9cImWrbSJlwDYgTOAADSIZ7Zr0VsK0nL5BvGd/rWUUpLt0QRpt4fAaODYMwCv1I47GO/JppSstiyRKRhs3QIgYaPZ4EjhDEMAtLL27MO03xaF4aV+rH7iFwiWChHMTqqkN8F6jvKct8PtMS8K2jCjE9O0dJ/+aTBGi3u0kWN2ttYsMDGyg1YaohX1LS1SRjD3wiH7RYSWM/JdFbp9Qv9b+9Bitp1tI50/ftlrP9577YGNyamU2rVw9MJ/R92DxsshvThxv0fM6gtnGgMh7cKpzhkS77xmNvaOGp8AyKmUYc0AzMBVKAWkBVfxgjn9128FSyvQyaN7WQDsQGjW7xYcvZP5CIA8une3q5VtFnV36Bcg565POKiSBUBK3eQEf6Pj28LpNwPQ25Dqtu0Rfw5UNrc/FQoEmqfuwNxh/SiDCoBRiXmHtBRMpB+3EUg0F7Q0QvZlgw3CJyMQ5V47alxPaoqJzq3rTbW6faJxBhHPIBJMAExMZQxNXO1+ETQF5HGfuJP3bN+gUMce9+0KQwpAAYOGuwZgBSo/AVgqZhXaD9g98pYXTWUBsNM/1qwgT0oqyBqAe3TvWJw2Apq9mO0JjSvdIz+TM3MIsgbgmq3krHV4zWaCdaKCAuC6/c34wdYbd0IHFgDn/RHOH71poxkc6vVZQO4rx/Wn5GfGtQnN1BXDFAizHjk4wRAABhPvfhBEADy50qRWvhs8oAD43yd+BTZpV86CV8sG++WGeypeAXCMOn0CmTvw+QlA7+lm+kULbtdI/5Z26NiBWAq4cnrFK91TUADyjezlgB4k2HoIQN7ReggB0LiXRclrV1DA/hEkEFhVhRIA12vCgwpAnzu4W7MAcSe1kWawZgyyo9IultNbcxcnA2KShsf8eTdvAPQKyHLQ11N5fovAeURd13VrUNEisrbed46ngY9S+RhSAPxSHvoQzWMNQA6Erjp8BeAKqT4z9aKLiPx3cySeMyL2gNMKkl6iIAfTfKmUnBlGIcry+O25e2i4KaDsaNdIzgcRpPy2+gcCK3dm/VjNwOv1w3elaqw1gB1iq7BVS1AB0FJ/1o5hw3ozRWALQP79xnrqiAJQMKb4824KQF6Y5bWcgAKQ1yJtlkgBKIUIlFgAjKl79iyBFKx8BUCsKrtH656LzeP8zx9oyLq3nzoCp2sUXmifvW/6R2sszzZQGQuv1Nlw8vjuNY+Qvcc/EJRHAPxnAGYqKp/f3IoYjwAIwR1yKrGz3kApoCDnC7ICX7C9kP2cxQwESi8AejyU9ucHOQdgBUeHeFgzCNdMo2V3/v36Wtu2iLh2H+WMnH3SPGFnAIXOMrgFTXkBcC4aRpkBdLjWH7zWAIw1A+mnLa8T6GsArpEpo4CNQBDhd6T8HDD7rAV5iIK+BuBxa2D27+YagJ/gkMNICJRHADST3emPQucAvEbHXn/TxETkg/UTxfl25rj37UOcWtSf90idFDpQFZcAOE4ra6L0PHBjgJPAeQ+9lSkFZO3WkQK1sdCnUWEs5EUSAH3S5twaau9A0scU7l1Arp1CnAFEnAFoMz+PXUCmyNoL8I4FfLPJAn/bnrNV11qo5wwgUmQPWLh8AiAHPi2Yi73heV8FIS8YF9zd87g48LXI+3SsDYjroJTVbr7ceb5TvrEJgHtGJPlQiMTECYAw1traZ9qt5d71cwPmSC+KAPS1us4BuGcEevPaSDTPnnMKQAwCoFWR/xyA0YDX1l7v7b4594l7nANo4QwgYCgP99jwBCBcGyylEALJexWEQuApbCp5V5i8CKZTACKAV4lFGQgqkVV/n8i7P0aV+AQFoBJZjeATA0EE8BQuSt4VJi+C6RSACOBVYlEGgkpk1d8n8u6PUSU+QQGoRFYj+MRAEAE8hYuSd4XJi2A6BSACeJVYlIGgEln194m8+2NUiU84BKC7u1u8Nzn7aWpqqkSf6RMRIAJEgAiYCOzr79f/VXUkc9QWgK1betDY2EiQUoZA//79GD1qVMq8prvkPZ19QOadApDOPuDwmoEgnZ2AvJP3/wPeqdXVyN8KEAAAAABJRU5ErkJggg==;" vertex="1" parent="1">
          <mxGeometry x="-190" y="-280" width="384" height="85" as="geometry" />
        </mxCell>
        <mxCell id="b3VDB1ha94okd-puWpiR-8" style="edgeStyle=orthogonalEdgeStyle;rounded=0;orthogonalLoop=1;jettySize=auto;html=1;fontSize=20;" edge="1" parent="1" source="b3VDB1ha94okd-puWpiR-10" target="b3VDB1ha94okd-puWpiR-2">
          <mxGeometry relative="1" as="geometry" />
        </mxCell>
        <mxCell id="b3VDB1ha94okd-puWpiR-9" style="edgeStyle=orthogonalEdgeStyle;rounded=0;orthogonalLoop=1;jettySize=auto;html=1;fontSize=20;" edge="1" parent="1" source="b3VDB1ha94okd-puWpiR-10">
          <mxGeometry relative="1" as="geometry">
            <mxPoint x="1440" y="-120.00000000000023" as="targetPoint" />
          </mxGeometry>
        </mxCell>
        <mxCell id="b3VDB1ha94okd-puWpiR-10" value="" style="shape=image;verticalLabelPosition=bottom;labelBackgroundColor=default;verticalAlign=top;aspect=fixed;imageAspect=0;image=data:image/png,iVBORw0KGgoAAAANSUhEUgAAAvgAAABRCAYAAACnrtLsAAAewElEQVR4Xu2dfXAd1XnGX006FTGh1DAOuLaZtpgBYkdyY2AKbitjD3YGCBaIBjCRM5TvYCAlYGXMEDCN3V53gISY4ECAiQUupBGWYhyKaRwxpFCISSQhB1yc6SCbcQgTCE1Moplk1LPfZ8+e3T27d/fux3n0l33v7vn4PWf3Pufse95tGx4enurq6iL86UVg/4EDNGf2bL06jd4SdNdzEEB36K4nAT17jesduhsE2mDwMRD0JKBnr3Hjh+56EtCz17jeobueBPTstXi9mwZ/8eLFetJAr0EABEAABEAABEAABECgBgQm9u93e4EV/BoIii6AAAiAAAiAAAiAAAjoS6CtrY2mpqZg8PUdAug5CIAACIAACIAACIBAnQjA4NdJTfQFBEAABEAABEAABEBAewIw+NoPAQAAARAAARAAARAAARCoEwEY/Dqpib6AAAiAAAiAAAiAAAhoTwAGX/shAAAgAAIgAAIgAAIgAAJ1IgCDXyc10RcQAAEQAAEQAAEQAAHtCcDgaz8EAAAEQAAEQAAEQAAEQKBOBGDw66Qm+gICIAACIAACIAACIKA9ARh87YcAAIAACICAnMDezWfT8n/5qfXlx75Iz3zvGjoRsEAABEAABEpPAAa/9BKhgSAAAiBQDIE9GxfQ/L5Rq/LOBo2PrKF5xTQFtYIACIAACCQgAIOfABYOBQEQAAGdCMDg66Q2+goCIFAnAjD4dVITfQEBEACBDAnA4GcIE0WBAAiAQAsJwOC3EDaqAgEQAIEqEYDBr5JaaCsIgAAIeARg8DEaQAAEQKCFBPiNqx/74jO07dz/o60Pfpke+NYoHaSP0PHLV9EtN99InzyhnSYP/Ej47lr60m1XUNfsdkmLD9HrT91HDzy4jZ4cPWh9P7OTli3rpiuvXEmnCufsvOnP6aonrcMueOAluuCNm+mWf32etWEmdV70BdrYuJB+HxqD/zYNXbuUbnz6N1YBMy6gb2y/m5Yfa/3XaveDNLhzJ1lNYf06YxktX3kVXXfuSXR4C3mjKhAAARDQkQAMvo6qo88gAAKFEeBXxeecuYymvbCT9k4KzWk/hdbedToNfOFr0u/ufuVH9I++3a7McK/6OHX3vyPvFyuv8fIPaU2HNzEYWtXGjrcO7zzlFHp9925ymtG5fpReWttB+6QG/xD9eMNiOuNW+3ih7LeHrqCFFz1Eb4l9sls2Y9lm+s/vXk1cUwrTAhWDAAiAQF0JwODXVVn0CwRAoJQEfGEvrIWHn3EzPb7peuqg79Pnl/8DbeM8evusi+juf7+Dzj1sjO68ZBU9ZM8E2nsH6f0tK8ix6+89fgHNvGSbadBnnH8fDW04l2b9dozuuepC+spuy2mL5/AG3/h+xvkP0zNfWUpHf/hoOm6GtcYeDNG5kf6w8W/otD65uafJZ+lzM5fR/e+xk6efSWu33EVXdxxNH7z1FK1dcZ3dt3Y6c/NPadfVf1lKfdAoEAABEKgDARj8OqiIPoAACFSGgM80t59P/3bwSbp4utX8sQ3zqfPWPXZfjqfbd++jOxZa/33v0RV0VO93rf/4Ulbup28sOY6u+YHxxSLa9LMf0nW2d54cuJgOu/AJyTnEVvy9FXyafi3tPPh1OkuI/PEb/PX09M27aVXvNjLnIO0n0vXbn6N7zzrGY79nIy2Y30dmYs3O9TT60lp3pX7y2c/RzGX3k+H96fjbafe+O8juWmW0Q0NBAARAoCoEYPCrohTaCQIgUAsCPtN85maa2HU1zbF75jPxc9bSixPr6a+dXg+tojYnpsb33SF6Z+KX9FvzuA/T0cdNow8m/ode3fUsPXL3nfToq4fiDf5F36HfPd7jPhFwqvRPRtqpfXLSDeNZ/vDP6T8u48y9cdLee+jUk26i3U4B7UfSCYvOpkt6LqVPLvk4zZrmfGG0cwZi8WsxotEJEACBMhKAwS+jKmgTCIBAbQn4TDMLtZlioTbuH2/ixRdL8d9RLw1ObSHvTGuD7fr199L2n7xF78vi34Xy+BX86dd/n969d0mAuRhOxB/Qfl4/vTn0GfJb/Oi9AO1HnkCLLv8y3Xfnp+kk7LSt7RhHx0AABIonAINfvAZoAQiAgEYEsjf4oqlupyNn/RV1Xd5LNx7xA1p6y3diV/A7G+M0sib4jtoog8+i9unyHXvpm2fb8UWOhpMH6LmvXk+X3TlI/2s/PBDlbZ91DT356v0knqrRMEBXQQAEQCBXAjD4ueJF4SAAAiDgJ5C5wX/lDpp7yjr6mVENy2iz/oVhWvsJe3k84omAL4uOksFvp1MaL9O2P7uN5rK9AOZDguNZGNEeFkYky9pJLHToJy/Rjmefom3bvk3PCU8Wztw8wTbaOsFJGCUgAAIgAAJZEoDBz5ImygIBEACBGAJZG/xfsww6f8Iy6Jh/QhhO1IuqEhv8eWzT7DjbNEt76J5TF9JNZnYef0acF+/8BF3y8LtmUz7Su4XG/+nvPBpsZf/BFXPoqmecpsqfGmAAgQAIgAAINE8ABr95higBBEAABJQJZG3w6XtX0GHnPGStqLefRw/v+zZdxl5qNfnGo3TJol4v7WZEDL5SiA53/uR/30rzTt9gPzU4j/rfHKLPGMH4fBYd8WnCoR/TukUL6Q4zxc50unbnQfq6mLZHmSIOBAEQAAEQiCIAg4/xAQIgAAItJJC5wZ/cRTfMWUpfc/Lns8w1s479Y/rVm++wIBnur/1y2vG7b9LZ9keJV/B9E4RJ2nXDHFpqVzqDbdLdzzbpsmkFjd2zhM646QW7bmM/wLH0p3/0e/rVz73NvzPY5uJX2eZiIQdPC1VAVSAAAiBQbwIw+PXWF70DARAoGYHMDT7r3+QbA/T5ns/SZiclJvvs8L/opi89chsdvm4hrTZz5PtXzZsz+Ky4twfo4pMvpCfMxPadtH70JVprvp52kg4891W6/soN9PQb77tpNY2j2o9cSH+//i765yu6iD1kwB8IgAAIgEBOBGDwcwKLYkEABEBARmDyvbfo7V//wfqKe2us+f9D79DEL62M9vShI+iYWdO93PT8d2a++2Ae+UPvTJBx+oeOOIZmTbccdFh9zrFWVd7xfJt954rtMZtr1RdaBtfmsDowSkAABEAABLInAIOfPVOUCAIgAAIgAAIgAAIgAAKFEYDBLww9KgYBEAABEAABEAABEACB7AnA4GfPFCWCAAiAAAiAAAiAAAiAQGEEYPALQ4+KQQAEQAAEQAAEQAAEQCB7AjD42TNFiSAAAiAAAiAAAiAAAiBQGAEY/MLQo2IQAAEQAAEQAAEQAAEQyJ6A1OAvXrw4+5pQIgiAAAiAAAiAAAiAAAiAQEsITOzf79bTNjw8PNXV1dWSilFJeQiIM73ytAwtyZMAdM+TbnnLhu7l1SbPlkH3POmWt2zoXl5t8mwZQnTypFuhsnEDqJBYGTYVumcIs0JFQfcKiZVhU6F7hjArVBR0r5BYGTYVBj9DmFUuCjeAKquXvu3QPT27Kp8J3ausXvq2Q/f07Kp8JnSvsnrp2w6Dn55drc7EDaBWcip3Broro6rVgdC9VnIqdwa6K6Oq1YHQvVZyKncGBl8ZVb0PxA2g3vqG9Q66Q3c9CejZa1zv0F1PAnr2GgZfT90DvcaNX8+BAN2hu54E9Ow1rnforicBPXsNg6+n7jD40N0kgB98PQcCdIfuehLQs9e43qG7+XsvT5M5RKvaummsMU4ja+aFkNpDGxfMpz5q0PjIGgo7Sk/M5e81bgDl1yiPFkL3PKiWv0zoXn6N8mhhM7oPrWqjgZ4p2rKi2ZZZfqK/d5Cmmi/MbUya9u3ZuIDm93XQ4NQWCu3W0Cpq6+6n3sEs+t4su3TnN6N7XI0G9+6xKN+n4h/japF9b3jOS4keG6FQWxo4zfapHdFjzxoXRI3xJGWn6UO+52S4gg+Dn69U+Zae5w0g35aj9GYIQPdm6FX3XOheXe2aaXlq3fdspAXM8XRkYnJzMPiZtk8gDIMfOeTiDX4zIzbiXFOXsVxMOAx+2MwIK/g5jeZ8i01948+3WSg9ZwLQPWfAJS0eupdUmJyblVr3TA00DH7OMgeKT627QkNh8BUgFXSI4gq+7BGLfZE6De9tUGOsDyE6BQnZbLV53gCabRvOz48AdM+PbZlLhu5lVie/toXqbq9SezV3eiuj4neddjiGdAVV8iTfnhyM2oV3NhrU0dfnD9EJq8M8x/Mf68bnE4uWsf96rdCayHOjWcpCdKzP3NZSo9FBfX01DdGJ0t1EL1sl92u8zw7RaXQw/+dqw40fTj8+xNvPmdUVCNmy63GkIK/M+HPDdJeH6JiTFG5cNRpjTHNtQnQEg+9csJwgLiDn4s/vHoWScyCAH/wcoFagSOheAZFyaCJ0zwFqBYqU6i4JQQkYX9kKvoL5m2eX3enu3+NMm+0fHLPmxbiLkwRvMdE7xv7M8RspnzCI/bR8DGdOuclJ7WLwVXRX0Ng0+IY55ryfP8QluEAc4GxPArx9GYK+rPhA2EyqEB3R4Dvj0Z4supMas0O5hP+08jaRagXfEocDYrYYMfitFC7ruvCDnzXRapQH3auhU9athO5ZE61GeTLdlTaapjL459AOaeINPkSH5Btu7fqYw2KJPfZJj/G1OwuD76uTSxNS0xh8Jd2VDX6IHzQ3s1oau0laFDj37ZVtfrY85taVdrKXLAx+iLaaxeDzMzCysuVIdiEXFotVjXtrqVuJH/xSy5Nb46B7bmhLXTB0L7U8uTVOqju3Su2ttAtNSGXwT6SGNPset4raMxCSoYZfaRUMot20zA1+mGFMOXnITcQUBafWXdXgS7LoePr00AA3DsLNsxCKFZmZh0HIwOCHTnJSlZ1CmJxPSbGCL59Nm2v4Ruza1pVIk5mzaHkUjx/8PKiWv0zoXn6N8mghdM+DavnLDNddjHc2Ii64tNhpDP5jRJdauQYD6bXNxUBiq7u2wQ8lZ4bxRBl8O06a0mX54Q3e3NDUiJbxZAH/GaQILWaMpNZd1eAbWgopT6MNvhtYHwDS2RiklVu74/dzpjLh/hAdeTSKaWZZ1qittFKPNJlYwS/msmxdrfjBbx3rMtUE3cukRuvaAt1bx7pMNanq7uypc01+GoM/orqCH5fqUJ5H3bcSnIHBtzbrStpS1xV8ycAM6K5q8BOv4Ee9e0Ax3DsDg48VfHMQ+C8wxOCX6ZadTVtUb/zZ1IZSykIAupdFida2A7q3lndZalPXXUhlqWzw+c2R6jH4wZdo8p7DihoQj8nc4CvEhmf4Xq6WDonUuktNtH8DrLXJNnkMfuCdCtwYk8fgG1E53Eu1MjD4VphPMEOSxjH4xuaTYB5bN20Rsui09MLNqjL1G0BWNaKcMhCA7mVQofVtgO6tZ16GGsM32QopAQPGJyJVdlQ2PYlpdjPuhWbRsY2caxoVVvDnpXtbqriCGzR2sgw+ZVAyWRua1Z1/67CYMdHNohMYB04WGpUsOiGZk3g/KY7JVE9WgmkyAwvW7p4UTbPoWENLyIPPhDDzoMZtjEg2LnF0iwjgB79FoEtWDXQvmSAtag50bxHoklUTpnsgrzhrt5gW0ssVzq3WBnLcj5OZq573AcIx5Lwzh0/UoZgHP5hH3ZuYSNsXwz8+Dz7jwPL2j7Gk6Nm8xbeYAdGM7lY8eh957zHwayzPg8+v6EdN0LhY/AR58C2K3L4R5YVllTz4zNib7z6ICx0rRssktSpusk1SJI6tIgH84FdRtebbDN2bZ1jFEqB7FVVrvs3QvXmGVSyhWN3TPV2pIueytRkGv2yKFNSeYm8ABXUa1RJ013MQQHforicBPXtd6PWeKpRGT52y7jUMftZEK1peoTeAijKrQ7Ohex1UTN4H6J6cWR3O0EV3L1wnSrXqx1irjsmidBfj9bnXh6k2XfG4YJpX+YniZmDF4it6GAx+RYXLutlF3QCy7gfKS0YAuifjVZejoXtdlEzWD+iejFddjobudVEyWT9g8JPxqu3RuAHUVtrIjkF36K4nAT17jesduutJQM9ew+DrqXug17jx6zkQoDt015OAnr3G9Q7d9SSgZ69h8PXUHQYfupsE8IOv50CA7tBdTwJ69hrXO3Q3f++Hh4enurq69KShca9xA9BTfOgO3fUkoGevcb1Ddz0J6NlrtRV8luaI2IsOQv/YSwZoZI399R5ib0Ug960IspPYCw3IeefzxgVEfexlB3wZ7HXE1O+c2Ek0PkLEb78W28OXZ542xKYq3V7Nge/ZV069oZ3qJZpifXb7Yvx/i3A0V4+PgXMY931jnGgN3wmhjYPs+9tjuIltHZwiWiF86LKTcIsY42W48fteQ63n9djyXuepe7yeeeVHNjIqXEr02Ij/kms53fJWmET3wJseY7tl6DpAPex+Kd6eYk/FAbkSkOv+DG164n56LaLmk08apNXsJ8X9G91A173+snDGbPrb0zfRxcd5H7/2X6tp04EDESWfRj0XraUl7Ij4Y9lB01bQ6uMO0iazbu9cvoKwcvx92EOPb7+Vnv/AODNYjleGvA7jrKhjfG1gbe456hUaiOQgIDrqWrrvrOX+DznmH529nm5fpJ6TBro7KPXWXb6CH2fwDXauwVUw+MbxjumONfjsWNEci+ZcNPDsrXjU7c4QjMYFJwmxBt9sJDuPmW5nciO2I9ZMhxl80dwbRl2RW4NNjrayyYvxAjhxUsH3OzChiP7dSPKDn9cvULwhzKtmfcvNU/fC9DTfiln9txDmOSqT6J7U4MveDppnX1C2OoEsjN6uZ7tp4N2IOjlzqmTabYM9M3YyEGfw4ycq5LaNN3qsXMFQN2PwRXO/+lOXESn2zZsIiJMlrm/GJIeVebK67CGhmPG8+EkRdLeAh42NKugeY/AlRpk3leaKMmdUI1fO7bJ2xK3gi0ZWYoTFehzjzV6Jzd4xbZnh0EmCZGWen9AY5xkm35wvcP0Xj/GtzjtXnszgy8y9cTzXrzhzLjXy3PnSpwkw+Anuh9ocmsToJYUCg5+UWOuOT6I7DH7rdMm7pjiDH7cyzJsY8VjeADrfRRrliUdo3YtD9AvWaeP4T9P91mp/nIF1V7L51XXesEeYY1aXZVoFg+9+Hm3ieH1kfZOZPMOIu5/H9Y3kRt4rN/iURGXMQHfoboyT5AafD4cxjSkrxQlrkRl81xgrGPxOdsyo4c45E86f38m+M7/mQn749hgTjr2SCYTRU3cFXxZ6I5rtfV7Ij1OXM4mINNOiwefYGG3whdgkMPjGue7TA7v9rulPFprj3BykNwD3DXSMb3e3FzXFGExtmcsQzjejq8w/xmGchWl5Dw2t8Av+OYqh05QdmmWu8m1dSY2OPuqzJ0+f/dQofWuCL8cro5excqK6VG5oOEaNQKjRM1fB/U/BGixUzp3HSlfJ7ZeNkKXhPjZGu8canMbmQGFzbacceYiOtQLsDCzr+nbGjdUr8aUmXpnx56pxqftR4QZfYMuua+sa5V8QE35tiy8Y6mS/CSPOoLHvJ56yer10pgxjqjmj55nPsImAZ/It8+2tystCXTyT3bTBd01/mAG22k5uqFHQ4PMTi1Qr+HzYkmDk1Q0+GyVcOdZkJJ573NiC7k6Imd66Jzf4fKhLohV825hGhegY5pn9uJgu0THDjpHlV+d5g+8aXbt8cULhONAog8+vzov1GldSLyu732hUnJnmDT4XWhMw95ZpcSdGcSv45tXMle22h32sdG7wdhBl8Ed5U8YZP8902z/4rhGTGDf7x91on/GD7xoxzrz5V3wdEwETEHfzbuZ7qe62xvykKhB2oWrwzcvEm7RZ5RjD1DD5wXFiGcTgJKBfGFv9oWUalwZCdOLGhPwH377mAmytRZZBM6Ze9drusI+3W2KPKd7wJ30yENcnfB9PoCmjF2uiWf3uqrxltDv3OzH4EoPPreAbRnbpb+xj41a5JSv47sQi7lwXEWf0ps2mj35wwH2SYMS2Jzb4JxENOHsSJG1IZPBZG/mJ0slHvUyvGSFRyn1T/H3nnhZEPrmB7j6gvrFRMd1bF4PvGNE4g7+OPRUwVhLFlXN+Uypv8N3wHGdVPyRkSCUGX1yd923+NX7z+CcHspurEI7DHxJY+VeJwReeNgT2GsieRsTf9I0jogy+Y8qtkkQzb39qr9YaK7fG05H5fcIPvOm7rBVd7xjH6IllnEgNc/Uf5l5NvfRHyXRXiqFWNviihvYKcYexKm88iOqmMWeVV5gEur3iJhx97IlccGxZZW5daa8Ww+DHDohw3f3XpHnFm5MuS8e5ytc2f/37n+wEnvIFntDENh8HpCQQZ/ClxTrx6dLQGPEMb7XZZ9qj2msbV5U4dXNFm5wNvt6kwTXEss2p0ro5g8/OWT1tu70ZWGFiYpcXtb9A3JSsshfBf04wPj6w0TnBGIDuDiy9dU9n8H2rxjFGVTS2cQZ/5EQ7PMYwrz3cv7kMN67R5gw1H/4iW62PNPhhK/O8YVcx0xKDH7ransLgG2OWn3TIsuoo3gSiQ3T48Jh4g+/b2y8+lrdXB2WTAGsC0MtsfT/1j/KruIqdwGGJCUQ/uTEW37kQC750VYNvT+j8SbAck95DA5zB96/u+ypzJwLr2H4YZ5IYmkMCBj92HMh0D9szETrhU722wyZuwqRfPSdIbPdwQAiBchk9fziNsglOYPClG0PNScBsL4uO+X/yMgn5DL9KFh0b9rTT2MZXttouycyj3LewTEXKExe58NCdcYHuaWLwxQElWzHnja5gnmMN/jlcTL8dGmNOEvjP7ZX0wIq2ZLA7Jlhm+nmzHBbqEnhCEPVbEtJvafadpCE6dr1iSFLKn7ZsDb4Qo2uv0AVX8P2r/GL8bjCuP2XncFooAeVYbFaCz+yrGnwS4+dZMJq7Ciwz+FzsvdDqTpZBaiXLINVnx/jD4Kcf2EHdw1bZTRduZh3mQ3Tc3Rkq13Yg9j4grLB/J32/cGY0gTij14pQDdlmXKPVymEsCUJ01A0+S0nJp6FkYTu/YGE7Yak4fe01/uMYcC7siM/Mo9w3n3z+pyG+NKUJBzp0DzP4eumePAY/MNBCQmJ8qTa51e9Yg2+FfHi7OVmF0s28c+Pz7xttFdNz8ht4+Th449ioPPOx4TlGASFpMnkWsvSiSeLoS2jwzc2Vvk151iBRMvjOiq8kZjfhPQ2HKxBQzabiTL5ck69q8BOv4AdDu7xuRJhQvq9YwY9VPu0KvvHEMPG17W7Wx0b5WGFyPqApo6cQs622yda/0dEJPVE2wbJQocDGVBGkPzQjuIJv5ZwPTghUVvD9x/BlJO5bGQ0+dPepErY/owq652fwLYfn5adXyYPvmF/f5MB5AiBMJPr2huerN+p2JwlC9h6fwRdMeeA79n3aFfyoXP7ihKXSBv8c2mFk1wmssvo38IWH6HgbMrEJL+dfe1a8qsEP7L2Qmmi/xvKJXnwMfoeYMYkziPIYfP/kcR4MfuzASReD38eSkqW5tnnN+VdfhX0e23wckJJAcwZfeBmVEDaSLE0mH2MuZNyJ20wamybTSYnIQeIz3EhDNeyXSvEr8ObpyQ0+8akuxRz/cX0rpcGH7rws4RuwmxjTLdI9X4NvdEIMT4nKgy9b3ZZ9ZkwW5t9ur/KHxM+LeeuJvenSTMUniaWPemFUVgbf97Zdo82PEV2q8Cbb0Jd6qewJCP9VyDJExzJ2/hh6N/wmNgafS5PpPNrHJryUP+fxpykbvUBmneBeDFFjaxwYl5gXpuPPkqOSRUdctQ9merFCSNiWbGdigBXjWOHlRk/yhMTNmmVtsrVW8KOvbekES/JELnzPRWzzcUBKAs0afKPadC88khhl4c2sbh78yL6xctzMJWKZ8S9uMooO5MEPfclVWoMfNMTeJt6ozoX3p5kNtkaN0B26m+NgeHh4qquryz8Kw1JNSsdqzIuueGNrmPWVWy2jzW++leWYj8yOcy97odUN8re7um0UXgTl1Csz+LKJiBPwm5nBZ5X4nmhwfYi6B1TA4BuoZPmwH2OTKidF4jlsYidmQ5Ft8nPSaYZu9kz5Q4fTLAJhK/iBfPKmTxdCLITYakMjfhOsPA9+MJ+6m0XHFiU+l314HnyrCO77wPsZoHyU7sF3DPRSozFGfVxWrLhr20l/asbp85Nz5MEvfPBlYfTMTgRWuo0Pgzno49JNepOF2XTyUcwYv2vEvUf9RRl8+zx+tZ4rym+SxZAdewXfvn88vv1Wel6yWZZvWXTf/C/eUu4be3fAEreSksTg852G7jEpVMutu9zgF35bQgPyJqAeqpF3S1B+KwkUq7v8RVet7L+udRWru67Ui+83dC9egyJaAN2LoF58naLuMPjFa1JIC3ADKAR74ZUWqjtCaQrTv1DdC+s1Kobueo4B6A7dDQIw+HqOgwSbLTUFVNNuF3XjF+P1kQO9tQOsKN1b20vUJhKA7nqOCegO3WHw9RwDZq9xA9BTfOgO3fUkoGevcb1Ddz0J6NlrhOjoqXug17jx6zkQoDt015OAnr3G9Q7d9SSgZ6/F6/3/ASmE3vnrAPErAAAAAElFTkSuQmCC;" vertex="1" parent="1">
          <mxGeometry x="500" y="-260" width="740" height="78.87" as="geometry" />
        </mxCell>
        <mxCell id="b3VDB1ha94okd-puWpiR-11" value="" style="shape=image;verticalLabelPosition=bottom;labelBackgroundColor=default;verticalAlign=top;aspect=fixed;imageAspect=0;image=data:image/png,iVBORw0KGgoAAAANSUhEUgAAAX0AAABVCAYAAACl8TS+AAAV/UlEQVR4Xu1dfXBW1Zn/ZXSabamDaDOWCWB3wYGRkFCj3RXcDeAa2ujIlx+Am3SUT6XYlbrGjTMFoqBhllJFSjBVp4CxZQokfnUIlk1mWwJTUBKCNQu0CskgTTV2urG8TjvZc+7Xe+59z33vvW/ufXPve5/7F+Q995zn+T3n/M5znvPcc/IuJT4fBHuOtB9GWVkZ/yc9MULgfE8Pxo4ZEyONSVWOANk9nv2A2z2PSD+exte1psEfT/uT3eNr97zW1lbF0+fPjBkz4okEaU0IEAKEQEwQIE8/JoYmNQkBQoAQyMvLo/AOdQNCgBAgBOKCAJF+XCxNehIChAAhwBAg0qduQAgQAoRAjBAg0o+RsUlVQoAQIASI9KkPEAKEACEQIwSI9GNkbFKVECAECAEifeoDhAAhQAjECAEi/RgZm1QlBAgBQoBIn/pABBHoRn3FbDzznir6/Bc+wA/K3anRsuZrWL5PLXv94wfw1sqJ7l6kUoRAjiBApJ8jhoyXGqewaWoRqjtUrSubBrFzjjsEmqvyMHeXWrakrgsnHpvs7sUASg28/zJe/8P9WPgvAVROVRICNggQ6VPXiCACESf9gfex59F78ED9Scz3MGFF0FAkcggRINIPoVFIJCcEMif9gb5z+Pgvav2XXXENCkflOzXm8+/d2HLTJKw55n2V4rMgVF1MESDSj6nho6125qQ//HpHWfbhR48kGDoCRPpDx5BqMBBIoOc3jWhoaEJLSwcu8L9/eTymlc/G4uWrcMekEWasuutRMfsZqPux1+PxA29B3Fftrq/AbH239vrHceCtlVC3XVOJs6G0DT9+shbbD5zF/7E2Z1c9gkdW3QFrk44buYke/KaxAU+98BN0cAVGl2D+vGV4YNltKLJdFQzgg/Y9eHnrbuw9zNpXXpuPecuWY9Udk2Bo3bIGX1u+B59+1Is/JVQoRhRci698if1j/gv4QN+N1mRoaGpBiyIEh3EaymcvxnKJTtQBCQEvCBDpe0GLyqZB4CKal5bi3hd7ofGZpWwByuvfxmsrimEEVE5twtSiaqj7sSWo6zoBcV/11KapKNJ3a0vq0HXiMajbrmbSn/3ganzw0lZ0WxsuKEf9269hRXEyhJNuIzdxeje+PXMpftYr0SB/Ila/3obnbrvGrFeiEzvu/FesbOmTYjNi2g9w+NAjUERorkKevotsLV3ZhEG+G32xGUtL78WLMhn4OxKdqFsSAl4QINL3ghaVtUUgcfAhjC7fjn5WYtTMGuzcvALFV3+G3jdqMGfVfiiUmD8T9e8dwop/0KrxifRZxSi8vRY/+a+FuO4vR/D0tx9A/ckBtZHxNWg/tQH/pPG+LeknDuHhsbdiqyLoCEx79Kd4fnUxu0O0FouqXlQnFKv8YBNd1RSWDaQSfkH5Wrz0zAMoRie2LL8LPzymTh4Fq3+J88/NQv5AH859/Fu8UFGGDadU8e56+UNsnsX+8cWrMa7gchx8aDTKtysoYmbNTmxmk+TVn/XijZo5WLVfbSd/Zj3eO7QCOozULQkBLwgQ6XtBi8raIiB65SUbOnC0RvfoEwKRMQ5eewxn1pWq9fhF+tOfx9lfrUqSYH8zqsbPxS7OnWxCmPfqBexbOEpp0o70z++YhXEr/1spM4p53WeZ162+wZzv3XNwbeVrygpm1IMtuPCj29TVyvF1mHDjepxVXnoQLRd+hNv0RcXvtuGW8d/BrxUR5uHVC/ugipAupi/+VoINHUdRo69SEgfx0OhyKPMBxmPtsTPQYaRuSQh4QYBI3wtaVNYWge4tN2GSnpLCeW7kdZhesQgL7vsmZk0pBA9bK4/i0WpRbp9If2b9ORxaMdYk26GHr8KtWxWGxCjmaX/CPG3+yEm/H7vnXAXG68pz788v4acLhKye8zswa9xKKFPCWLZyOMdWDuyfos75S97EpR9XCDIMoO/cx1AThS7DFdcUQt0SSEf65swePmGNvG46KhYtwH3fnIUphQaKDMZx0GGkbkkIeEGASN8LWlTWHgEWi66awrxraWhbJa8lT21D7T3CxqZPpC/7OMu0H6DHy21J30zExuaqoe1n+OOHfVADRndi1yfN+DfmtWf2oVf67J2LLO4/hcX95TCOxHXTl+CpbbW4x7pDTX2TEHCJAJG+S6ComDMCiZ42PLv6ftQ2/V4jSOs7LPa+ch9Obq9QQychJf30miY3nIMgfbAgUk/bs1h9fy2afq/tS6TAWIiV+05ie4UegHK2DZUgBHQEiPSpL/iPANuwfPfomzj4xn7s39OGd3v/JGT0sM3cc2wzl0djfCL9O3d9gmbuegtP58YilDyh7paKoRc5UZu9b2NzVYpMMlRz5IlxuHnj+ZQ20gPqPk9/oO9dHH3zIN7Yvx972t5Fr57nyRtgm7nn2GauOajlvympxtxDgEg/92w6DBq1o/aGRXjpE970l1G5swtPCufJJHoaMGfschxQJBNSM/t3Y85VlVBD6daUTfMGMDsoxzZlM3/eq7iwb6Gx8Qr8DttuGY/vKLuonB+TMX8771zcA7CeydO/dwm+/r1fqpVN24j2xsUYzf6ZYKGYkSwUo+TomOTjf+jH3iVfR/K1djQu5m+lIf32Wtyw6CWoMFZiZ9eTSMLIVgANczB2uYpianvDYHZqMpIIEOlH0mzhE1qMoeffuAGHW2twg7ZfO/DOekwvXafm45uyXI7giXE3Q3OWUbLuOH699gaWMMlDHLWYN3sjtKxHC8mZiZMlRaLy5++gYcEYtvWZwOndizC9Uk8TFTNn0sThTZk4M7Hl7dfx71wBloe/8R9L8IQivDkTCKY0z3zcuOEwWmu4/IBJZ1P2TgJ7F/4d7vqZasPJLNOpi2U6qY+ol7k+ViPeWT8dpevUrxpMWUTh6w4kUYgRINIPsXEiJRojxy2zpmHNYS0OnT8ShV+9Epf/9VN8ZIR3GDk3nWQnYiY/cDJtuDKFlU3UL6jvoKAAX+rrU3L/7T39UazYZ+jrS6jv4o/4sE+Phae2Zx+HT6Bz0y34RvUxLRQ1AgXXfgVsBxd6dQVsQ/gkS+UUP89KdG7CLd+oNiYnUX4tSz9F5+PrJuDG9UqiJ09zYjh9AZ9e+SiOso/PJnRuwaxpa5CEsRBfvfJy/PXTj5LhnYJKNJ3cCQHGSHUVEnZ4ESDSH178c6t1dnxA27OrsWzjL3BajD/z1MPSu7Fh89NYWsa9cfG5iIPfux13bztuHE3AibD0/hfx6oNncXeJ9sWubXiHhYX+53lgc5VpAzm/8J9R3dCImm+Z20u/+TqA9/d8H6se34FD4ibqiL/H3O+/jK3fLcMYyflsidN7UbPyP7DjkLiBzTOWvoWahq34rlXni7/CunvvwDNtwl5HwRq0/WGzEs5RN8SXYeMvTicx0SaI0rs3YPPTS1EmEyS3ehNpExACRPoBARv3apOnWYo56mlQSfSj9+Kf8Td8EVePK1DPqzH+xv592RW4pnCUNmEk0N97EX/+Gy8k1K+XN5U1t+k24ybR34uLSgOCPE5GFeR1k0dvtGErr5Drn0YnJ7Hod0JARIBIn/pDrBBwS/qxAoWUjRUCRPqxMnfMlU38L35460Q8omX1yFI9Y44QqR8DBIj0Y2BkUvE46m5egK2/FTZDUw5PI5QIgXggQKQfDzvHW8vuLbhp0hpol1WxFKEpWLP/IDZbj0mON0qkfUwQINKPiaFjr6ZyrDE//szDxmzsQSMAchEBIv1ctCrpRAgQAoSADQIK6be2tg7qv8+YMYPAIgQIAUKAEMhhBPIuJT5XSP9I+2GUlZXlsKqkmgwBPvMPDhrzPoEUEwTI7jExtEVNCu/E0+4mrWnwx7MTkN3ja3fy9ONpe0NrGvzx7ABk9/janUg/nrYn0ie7U1gvhn2AwjsxNLpVZfL44tkJyO7xtTt5+vG0PXn6ZHfy9GPYB8jTj6HRydMno3MEyNOPZz9wQfrNqMqbi866Lpx4bLINStqNPxCvtIsnoFHUmgZ/FK02dJnJ7kPHMIo1uCB9N2oR6btBKaxlaPCH1TLBykV2DxbfsNZOpB9Wy2RRLhr8WQQ7RE2R3UNkjCyK4oL0ZeEd9W+7dEEr61DXWY1qCu9k0XT+NUWD3z8so1QT2T1K1vJPVu+kf2oTphaxe0vZJdGD7JJo/hi3EZnuMfVPSKopWARo8AeLb1hrJ7uH1TLByuWZ9FWCr0TT4E6olM8fiukHa6Zga6fBHyy+Ya2d7B5WywQrl0fSBzZNLUJ1cdLL18VTJoNOyt4J1lzB1E6DPxhcw14r2T3sFgpGPo+kf0aN5QuhHcPX3zQVRY2L0XXiMdgldgajAtU6VARo8A8VwWi+T3aPpt2GKrVH0idPf6iAh/F9GvxhtErwMpHdg8c4jC14JP3J2qYtxfTDaMxMZaLBnyly0X6P7B5t+2UqvWfSZ7k6KSGeUzy0U90BUPZOpnYY1vdo8A8r/MPWONl92KAf1oYzIH0uryVPn5F9XTHL06eN3GE1ZqaN0+DPFLlov0d2j7b9MpXeBelnWjW9FxUEaPBHxVL+ykl29xfPqNRGpB8VSwUoJw3+AMENcdVk9xAbJ0DRiPQDBDcqVdPgj4ql/JWT7O4vnlGpjUg/KpYKUE4a/AGCG+Kqye4hNk6AohHpBwhuVKqmwR8VS/krJ9ndXzyjUhuRflQsFaCcNPgDBDfEVZPdQ2ycAEUj0g8Q3KhUTYM/KpbyV06yu794RqU2Iv2oWCpAOWnwBwhuiKsmu4fYOAGK5kz67Px89rmtvQjswyx2ea72+ymww/YB9nGu7cMOa4N2Dj87shPQvuQ16mCndSZvZykBO8ENphPcrPKI9SmNNrMbn+cmm0/5nf2kt2svJDDIdDZ0qWT/32kpLbRjwkAvJvzO7heG6X5hi4xN7Pe1DrhZZW0ahHC2tfqrgZ0EtzQmocEf4AgLcdVe7K5+dQ/UsfFoe1V2VnR1c2e3VRB+9Pt9wCtJ2VV9ii1HxGdFgWFvZOikz1UwSM8F6fPyOhE7kj4rayVMK2FbSb25CuzAfwFYCQE6kr4iJJtwGBHrE55VDkeCtSN9K+Fz8naJWx2bMBvZhMYnVetEI+qdMsmk72deBv+w91gSwDcEvNg9PKSfgfpsbOTN7QzBhJWB7AG84oH0JeQpEo3ieQrkldbD1up608nTt5KbhByt7ehkzK5wBLvCUSFI24lD4sGLKwn+Hid+ZQ4R9LeWkbo+MtKXET6vW9DLibCl5C68L111EOkHMHYiXyWRfuRNmJECQyN9MZSikBWTQQ+JyEjfIEsXpF/CynRwxhaIWXy/hP2m/CyEi0R5+CTULZlUOEyGpy8L21gJ+EwyXKS3pU8saQnWSvoCNlwGU3jGA+nzd41Vhia/MRF4C+voPUY++JPL6PVs4ksunqwnrFrOYVIWSZarNNmZTE2LGzGXh/KUp0T1us5wDyy5KqtkmOiRP6WY4qEJqzY60C+jQW73UjrSN65AVV6uRF1dJ6pN4R3ttjwhlGu2X+rvYr8wZLLa2HRXh9q3WOPMf2NXtCqi/Ccqdz2NTsY3J5izZYRpGA3MlfQl4zBIvUGtfml4J21/czsefDVRIJUNjfTFMIknT18jq3ThHU6o7BA3xcvWCVInN9GLF0nfID+tfusko9/uko70RS/e2q7S6Vjdu7hQTgQrkr4QlkkhfP4Hj6QvTm6GPKwap1WCTRdKR/pc0+Rg1gjeIF9JfFW7Q5nLwgelQR7GYBbIQCBxa/hAH6zJtulKTr8ZQG533T7C5G6QoTZZT7b2g+QErdpLZqvUvpJqY+sJvrpDobereALKRGAmfdU5NK5w1eQ1+o4kvGMlfdv+1qHXm3Ru7MeD3xYKpj4PpJ9GAK8xfZ2cnEh/PVs98Nnb6mGLG58i6RuhHd37twk3uYnpW7140wazwoTJDWkpNJZQjlgmZYXgJqZvWZWk7F3IVi3uOk1a0rfckiYOlgk2m2Hi1ZlnJHcqS+PD2mRRrJBG6vHdiiaWCcWddlTKDgGp3a2Eqb0s2ux2FpaVbeom789egL0CMcvbt9mQVdrnfh6/g1vWD2Skn7rBbLq+1ZH0bWQx9Tf5rYFR3BAeOumbvEsH8rKSnRPpn5iohVY4oS0Q/i1k1hjkK5CsGDqRefVpSd/OgxdJ3A3BSkjf1ivPgPT5SBInIlk2j0u+cwrvcI9df2w7uTZAjNW+5sUrpG85ctuR9KGGdVLCPWxFZHdHs0tVqZiAgMzutvY1iPMV4D52TzYk92EL5DqxjtldicxZw4HGLMIiwdVQJ3k7s8jIWEb6qVk4pj6mhBHNG7kmPU0OhyiL2N/4cEuuMBzHQ4h7mgfSdwpnKK6YJKYvkp+lDkfSv12oTwurKBOH+HfN407xfCWo68QomwhEArULk6SsJNJZ1kZvadaP1/CO1q41nJVhR/NO+rpnZYnna6uCFE8/Q9K3VUdyR3OGqsf6NZndk94697SFRyHGRizu0kjfNi1bCMVYY+TpQjBSS7gkfdnd3KJ370T6NqsbzmdJJyMd6YchldV9V84C6fO5QMz1F7xkR9JnO8NWr1y6YTzB+fsAxenQJghpTN/ibafLg3cM7fDGbFI2RSxkYTEvcflhJn3Vm0v15PwhfUqxcz+MMys5JE+/OLlZ76p1YyWo9RdbohVrc0n6knz77Hr6RPqSrBrOgUL+vJs8fZ0QTROGvlKwrCiqu+3z6XkfMkjekjUkZgYpfc0hhJOpp5/uWwPrJBYZ0rdb5ps3+TIK72gxfX2zLkkDmXyY44qSYlloaDF9u5CK/QdP5rBe+ji6uLdj7gfBxfR3WVeQkpi+tU9G8fuF7Hj6+pCyhjbS5enLvGDZ3/gEUrRW/bLXLqPGmlcP9nWeUl4Sm0/3kZNfpG+aXPhEpBJo2i+ZxZWKjmcoPH0xs4LP7VosdygxfRZXSM2m0Ou2iRHHkraHprRdymZKiMfw0tNk7zhueqZm9DhnaLn19NlYTskE60juCUli9plm7xDpp/Q5h4+zRLLjBM5yt22PYRA3fdNm5TzHPsJ6WP6VqiGf5eMlvV0Z6fN37L629Y30rSsfQYd049j262M3G8v2FWce0xdIXqu+hK1UXmGTqp7doYSAvMb09WAy5ekPjdUd3nafp8/Ivq6Y5emLITenPH3J9xuy7yxc5Ok7e/rF2ncElu9AjPyD1DRhvvpPOYbBsyy6c5Jr4Z1Aux1VHgYEvHyZGQZ5SQZ/EMgFu0cxZdIf62Vei3N4J/O66c2IIJALgz8iUIdKzFywO5G+9y5FpO8ds5x7IxcGf84ZJQsK5YLdifS9dxQife+Y5dwbuTD4c84oWVCI7J4FkEPYBJF+CI2SbZFo8Gcb8XC0R3YPhx2yLQWRfrYRD2F7NPhDaJQsiER2zwLIIWxCIf3W1lZ2DrH6zJgxI4RikkiEACFACBACfiGQdynxuUL6R9oPo6yszK96qZ6IIHC+pwdjx4yJiLQkpl8IkN39QjJa9XC7E+lHy2a+S0uD33dII1Eh2T0SZvJdSG73/wcsToqCgnqKpAAAAABJRU5ErkJggg==;" vertex="1" parent="1">
          <mxGeometry x="1273" y="-110" width="381" height="85" as="geometry" />
        </mxCell>
      </root>
    </mxGraphModel>
  </diagram>
  <diagram id="0Ui8Dyj5eeop9Sn3JjIw" name="Страница 2">
    <mxGraphModel dx="1002" dy="575" grid="1" gridSize="10" guides="1" tooltips="1" connect="1" arrows="1" fold="1" page="1" pageScale="1" pageWidth="827" pageHeight="1169" math="0" shadow="0">
      <root>
        <mxCell id="0" />
        <mxCell id="1" parent="0" />
      </root>
    </mxGraphModel>
  </diagram>
</mxfile>
